<svg width="140" height="140" viewBox="0 0 140 140" fill="none" xmlns="http://www.w3.org/2000/svg">
<path d="M138.742 69.9833C138.74 84.3583 134.232 98.371 125.852 110.051C117.472 121.731 105.642 130.49 92.0258 135.098C78.4093 139.705 63.691 139.929 49.9408 135.737C36.1906 131.546 24.1001 123.149 15.3695 111.729C13.9111 109.815 12.5515 107.827 11.296 105.774C10.5652 104.577 9.88109 103.365 9.21253 102.136C5.7306 95.5605 3.34629 88.4601 2.15381 81.1156C1.62187 77.8867 1.32567 74.6234 1.26758 71.3515C1.26758 70.8851 1.26758 70.4342 1.26758 69.9833C1.26738 53.5541 7.15043 37.6679 17.8513 25.2015C28.5523 12.7352 43.3636 4.51289 59.6031 2.02362C63.046 1.50454 66.5229 1.24467 70.0046 1.24622H70.611C77.6341 1.29872 84.6078 2.42604 91.2897 4.58901C92.8445 5.08654 94.2904 5.63072 95.7519 6.1438C97.4777 6.84345 99.188 7.60529 100.852 8.44488C112.258 14.1729 121.844 22.9638 128.537 33.8328C135.229 44.7017 138.762 57.2193 138.742 69.9833Z" fill="#F7BF2A"/>
<path d="M69.9894 128.801C102.473 128.801 128.807 102.467 128.807 69.9831C128.807 37.499 102.473 11.1655 69.9894 11.1655C37.5054 11.1655 11.1719 37.499 11.1719 69.9831C11.1719 102.467 37.5054 128.801 69.9894 128.801Z" fill="white"/>
<path d="M69.9891 139.948C53.8398 139.954 38.1859 134.373 25.6829 124.151C13.1799 113.93 4.59773 99.6985 1.39224 83.8706C-1.81325 68.0427 0.555351 51.5933 8.09624 37.3128C15.6371 23.0322 27.886 11.8001 42.7648 5.52168C57.7163 -0.798858 74.4003 -1.72388 89.9589 2.90505C105.518 7.53399 118.982 17.4288 128.047 30.8946C137.112 44.3604 141.213 60.5591 139.646 76.716C138.08 92.8728 130.945 107.982 119.462 119.456C112.972 125.961 105.26 131.12 96.7697 134.637C88.2796 138.154 79.1786 139.959 69.9891 139.948ZM69.9891 2.45875C56.634 2.45875 43.5789 6.41898 32.4746 13.8387C21.3702 21.2583 12.7155 31.8042 7.60473 44.1426C2.49397 56.4811 1.15677 70.058 3.76221 83.1564C6.36765 96.2549 12.7987 108.287 22.2422 117.73C31.6856 127.173 43.7173 133.605 56.8157 136.21C69.9142 138.815 83.4911 137.478 95.8295 132.367C108.168 127.257 118.714 118.602 126.134 107.498C133.553 96.3933 137.513 83.3381 137.513 69.9831C137.497 52.0796 130.378 34.9141 117.718 22.2544C105.058 9.59466 87.8926 2.47522 69.9891 2.45875Z" fill="black"/>
<path d="M69.9893 129.454C55.3101 129.425 41.1644 123.947 30.2959 114.08C19.4274 104.213 12.6106 90.661 11.1678 76.0528C9.72492 61.4446 13.7588 46.8212 22.4871 35.0187C31.2153 23.2162 44.0158 15.0759 58.406 12.1766C72.7961 9.27736 87.7501 11.8257 100.368 19.3275C112.985 26.8292 122.367 38.7497 126.694 52.7769C131.02 66.8041 129.983 81.9382 123.783 95.244C117.584 108.55 106.663 119.079 93.1401 124.789C85.8142 127.881 77.941 129.467 69.9893 129.454ZM69.9893 11.8029C58.4824 11.8029 47.2339 15.2151 37.6662 21.608C28.0986 28.0009 20.6415 37.0874 16.238 47.7184C11.8345 58.3494 10.6823 70.0475 12.9272 81.3333C15.1721 92.6191 20.7132 102.986 28.8498 111.122C36.9864 119.259 47.3531 124.8 58.639 127.045C69.9248 129.29 81.6229 128.138 92.2539 123.734C102.885 119.331 111.971 111.874 118.364 102.306C124.757 92.7384 128.169 81.4899 128.169 69.9829C128.153 54.5577 122.018 39.7689 111.111 28.8616C100.203 17.9543 85.4146 11.8193 69.9893 11.8029Z" fill="black"/>
<path d="M97.8825 107.282C97.7798 107.283 97.6784 107.259 97.5866 107.213C97.4947 107.167 97.415 107.1 97.3538 107.018C97.302 106.951 97.2641 106.874 97.2422 106.792C97.2204 106.71 97.2151 106.625 97.2267 106.541C97.2383 106.457 97.2665 106.376 97.3097 106.303C97.3529 106.23 97.4102 106.167 97.4782 106.116C103.779 101.328 108.717 94.9737 111.802 87.6857C114.887 80.3976 116.011 72.4293 115.063 64.5723C115.053 64.4865 115.059 64.3996 115.083 64.3165C115.106 64.2333 115.146 64.1556 115.199 64.0878C115.253 64.0199 115.319 63.9632 115.394 63.921C115.469 63.8787 115.552 63.8517 115.638 63.8415C115.724 63.8313 115.811 63.8381 115.894 63.8615C115.977 63.8849 116.055 63.9244 116.123 63.9778C116.191 64.0312 116.247 64.0975 116.289 64.1728C116.332 64.2481 116.359 64.331 116.369 64.4168C116.587 66.2642 116.696 68.1228 116.695 69.9829C116.716 77.3043 114.994 84.5254 111.673 91.0503C108.472 97.3534 103.891 102.854 98.2712 107.142C98.1596 107.229 98.0236 107.278 97.8825 107.282Z" fill="#F7BF2A"/>
<path d="M40.3083 105.836C40.1551 105.832 40.0076 105.777 39.8885 105.681C34.6803 101.293 30.4962 95.8174 27.6302 89.6395C24.7642 83.4616 23.2858 76.7311 23.2989 69.9208C23.3035 68.1021 23.4126 66.2852 23.6254 64.479C23.6487 64.307 23.738 64.1509 23.8744 64.0435C24.0107 63.9362 24.1835 63.886 24.3562 63.9038C24.5271 63.927 24.6818 64.0168 24.7867 64.1538C24.8915 64.2907 24.938 64.4635 24.9159 64.6345C24.7111 66.4308 24.6073 68.2372 24.6049 70.0452C24.6103 76.6445 26.0558 83.1632 28.8405 89.1462C31.6252 95.1293 35.6822 100.433 40.7281 104.686C40.7897 104.745 40.8387 104.816 40.8721 104.895C40.9056 104.974 40.9228 105.059 40.9228 105.144C40.9228 105.23 40.9056 105.315 40.8721 105.394C40.8387 105.472 40.7897 105.544 40.7281 105.603C40.6239 105.733 40.4733 105.816 40.3083 105.836Z" fill="#F7BF2A"/>
<path d="M120.099 49.8485C119.652 49.3965 119.089 49.0763 118.472 48.9227C117.855 48.7692 117.208 48.7882 116.601 48.9778C116.349 49.0207 116.109 49.1135 115.894 49.2508C115.679 49.3881 115.493 49.5671 115.348 49.7772C115.203 49.9873 115.102 50.2243 115.05 50.4742C114.998 50.7241 114.997 50.9818 115.046 51.2322C115.159 51.7568 115.468 52.2184 115.911 52.522C116.353 52.8256 116.895 52.9483 117.425 52.8647C117.515 52.8601 117.603 52.8369 117.684 52.7966C117.765 52.7562 117.836 52.6996 117.894 52.6303C117.951 52.5609 117.994 52.4804 118.019 52.3938C118.044 52.3071 118.051 52.2162 118.039 52.1268C118.027 52.0374 117.997 51.9514 117.95 51.8742C117.903 51.7971 117.841 51.7305 117.768 51.6786C117.694 51.6266 117.61 51.5906 117.522 51.5726C117.433 51.5547 117.342 51.5552 117.254 51.5743C117.051 51.608 116.842 51.5645 116.67 51.4523C116.497 51.3401 116.373 51.1673 116.321 50.9679C116.321 50.6259 116.477 50.3615 116.927 50.2372C117.31 50.1121 117.719 50.0938 118.11 50.1842C118.502 50.2746 118.862 50.4703 119.151 50.7502C119.376 50.9636 119.541 51.2329 119.628 51.5305C119.715 51.8282 119.722 52.1437 119.648 52.4449C119.521 52.7663 119.31 53.0474 119.036 53.2582C118.762 53.469 118.437 53.6016 118.094 53.6421C114.984 54.3262 112.714 51.0145 112.683 50.9835H112.31H112.232C112.222 51.0085 112.222 51.0362 112.232 51.0612V51.2322C112.232 51.2322 113.662 55.0881 111.377 57.2026C111.149 57.4668 110.853 57.6632 110.521 57.7702C110.19 57.8772 109.835 57.8906 109.496 57.809C109.21 57.6993 108.957 57.5167 108.764 57.2795C108.57 57.0422 108.442 56.7584 108.392 56.4563C108.323 56.0599 108.364 55.6525 108.509 55.2774C108.654 54.9023 108.898 54.5736 109.216 54.3262C109.589 54.0153 109.931 53.9842 110.164 54.233C110.308 54.3809 110.388 54.5788 110.388 54.7849C110.388 54.991 110.308 55.1889 110.164 55.3368C110.043 55.4617 109.974 55.629 109.974 55.8033C109.974 55.9775 110.043 56.1449 110.164 56.2697C110.286 56.3903 110.451 56.4579 110.623 56.4579C110.794 56.4579 110.959 56.3903 111.081 56.2697C111.451 55.8822 111.657 55.3672 111.657 54.8315C111.657 54.2959 111.451 53.7809 111.081 53.3934C110.905 53.2114 110.693 53.0668 110.459 52.968C110.226 52.8692 109.975 52.8183 109.721 52.8183C109.467 52.8183 109.216 52.8692 108.982 52.968C108.749 53.0668 108.537 53.2114 108.361 53.3934C107.863 53.7876 107.483 54.3103 107.261 54.9049C107.039 55.4995 106.984 56.1435 107.101 56.7673C107.084 57.2775 107.193 57.7841 107.418 58.2424C107.643 58.7007 107.977 59.0965 108.392 59.3948C108.656 59.4882 108.935 59.5355 109.216 59.5348C110.098 59.5017 110.934 59.1284 111.548 58.4931C111.94 58.1402 112.27 57.7252 112.527 57.2648C113.084 57.291 113.628 57.4449 114.116 57.7145C114.603 57.984 115.023 58.3621 115.342 58.8196H115.684H115.761H115.87C115.87 58.8196 115.948 58.8196 115.963 58.8196L116.041 58.7263C116.05 58.6905 116.05 58.6532 116.041 58.6174C116.047 58.5762 116.047 58.5344 116.041 58.4931C115.853 57.9852 115.783 57.4412 115.837 56.9023C115.891 56.3635 116.067 55.844 116.352 55.3835H116.772C117.16 55.3821 117.546 55.3352 117.922 55.2436C118.499 55.1658 119.042 54.9278 119.49 54.5568C119.938 54.1857 120.273 53.6965 120.457 53.1446C120.726 52.6203 120.835 52.0288 120.771 51.443C120.708 50.8572 120.474 50.3029 120.099 49.8485ZM114.968 56.6895C114.384 56.3497 113.74 56.1229 113.072 56.021C113.289 55.1844 113.358 54.3159 113.274 53.4556C113.932 54.0154 114.685 54.4525 115.497 54.746C115.196 55.3586 115.016 56.024 114.968 56.7051V56.6895Z" fill="#F7BF2A"/>
<path d="M89.4394 108.495L90.7298 110.081L92.7511 109.91L91.6627 111.62L92.4401 113.502L90.4655 112.989L88.9263 114.326L88.8175 112.289L87.0605 111.232L88.9729 110.485L89.4394 108.495Z" fill="#F7BF2A"/>
<path d="M49.6842 108.557L49.9952 110.563L51.8453 111.449L50.0263 112.367L49.7619 114.388L48.316 112.958L46.3103 113.315L47.2432 111.512L46.2637 109.708L48.2849 110.035L49.6842 108.557Z" fill="#F7BF2A"/>
<path d="M65.3402 109.211C65.4351 109.344 65.494 109.499 65.5113 109.661V109.848C65.5113 109.848 65.5113 109.957 65.5113 110.004C65.5038 110.072 65.4819 110.137 65.4471 110.196C65.4122 110.255 65.3652 110.306 65.3091 110.346L65.0293 110.501H64.8272H64.5939H64.3918H60.1939V113.129H63.8943H64.2519H64.5939C64.765 113.182 64.9129 113.291 65.0137 113.44C65.1157 113.557 65.1759 113.704 65.1848 113.859V114.233C65.1922 114.294 65.1922 114.357 65.1848 114.419C65.1473 114.539 65.0774 114.647 64.9826 114.73C64.8955 114.807 64.7871 114.856 64.6717 114.87H64.4851H64.283H64.0653H60.1939V118.555V118.897C60.2016 118.948 60.2016 119.001 60.1939 119.052C60.1939 119.052 60.1939 119.146 60.1939 119.192C60.1875 119.249 60.1875 119.306 60.1939 119.363V119.534C60.1397 119.645 60.0659 119.745 59.9762 119.83C59.8542 119.923 59.7092 119.983 59.5564 120.001C59.2843 120.065 58.9983 120.032 58.7479 119.907L58.5925 119.799C58.5439 119.742 58.5021 119.679 58.4681 119.612C58.4657 119.581 58.4657 119.55 58.4681 119.519V119.426C58.4617 119.369 58.4617 119.311 58.4681 119.254C58.4754 119.198 58.4754 119.14 58.4681 119.083V118.897C58.4681 118.897 58.4681 118.788 58.4681 118.741V114.73C58.4681 114.388 58.4681 114.046 58.4681 113.704V112.678C58.4681 112.305 58.4681 111.963 58.4681 111.667C58.4681 111.372 58.4681 111.061 58.4681 110.703C58.4758 110.594 58.4758 110.485 58.4681 110.377C58.4612 110.273 58.4612 110.169 58.4681 110.066C58.4898 109.85 58.5476 109.64 58.6391 109.444C58.6936 109.286 58.8043 109.153 58.9501 109.071C59.1049 108.978 59.2825 108.929 59.4631 108.931H64.625H64.9671L65.3247 109.04C65.3364 109.096 65.3416 109.153 65.3402 109.211Z" fill="black"/>
<path d="M69.3045 119.954C69.3073 120.087 69.2826 120.219 69.2317 120.342C69.1809 120.465 69.1051 120.577 69.0091 120.669C68.867 120.805 68.6882 120.897 68.4946 120.933C68.301 120.969 68.1011 120.948 67.9194 120.872C67.7378 120.796 67.5822 120.669 67.472 120.506C67.3617 120.343 67.3015 120.151 67.2988 119.954C67.3034 119.687 67.4089 119.431 67.5942 119.239C67.6868 119.145 67.7969 119.071 67.9184 119.02C68.0398 118.969 68.1701 118.943 68.3017 118.943C68.4332 118.943 68.5635 118.969 68.685 119.02C68.8064 119.071 68.9166 119.145 69.0091 119.239C69.1043 119.332 69.1796 119.443 69.2304 119.566C69.2812 119.689 69.3064 119.821 69.3045 119.954Z" fill="black"/>
<path d="M79.7224 117.342C79.7911 117.482 79.8268 117.637 79.8268 117.793C79.8268 117.949 79.7911 118.103 79.7224 118.244C79.584 118.547 79.3826 118.817 79.1316 119.037C78.8428 119.287 78.5243 119.501 78.1832 119.674C77.8636 119.841 77.5239 119.966 77.1726 120.047C76.4302 120.212 75.6606 120.212 74.9182 120.047C74.1411 119.858 73.4143 119.503 72.7881 119.006C72.4231 118.707 72.1306 118.33 71.933 117.902C71.7181 117.469 71.5663 117.009 71.4821 116.533C71.3766 116.054 71.3244 115.563 71.3266 115.072C71.3026 114.611 71.3026 114.149 71.3266 113.688C71.368 113.271 71.4513 112.86 71.5754 112.46C71.8406 111.575 72.3031 110.762 72.928 110.081C73.2611 109.732 73.6435 109.433 74.063 109.195C74.4016 109.006 74.7695 108.874 75.1514 108.806C75.5647 108.76 75.9819 108.76 76.3952 108.806C76.8005 108.842 77.1985 108.936 77.5768 109.086C77.9349 109.208 78.2632 109.404 78.5408 109.661C78.7392 109.843 78.9165 110.046 79.0694 110.268C79.2469 110.514 79.3834 110.787 79.4737 111.076C79.559 111.328 79.559 111.601 79.4737 111.854C79.4184 111.985 79.3285 112.1 79.2135 112.184C79.0986 112.269 78.9628 112.321 78.8207 112.336C78.6928 112.365 78.5598 112.365 78.432 112.336C78.3173 112.309 78.2107 112.256 78.121 112.18C78.0173 112.116 77.9231 112.037 77.8412 111.947L77.6079 111.651C77.3825 111.359 77.0734 111.142 76.7217 111.03C76.3902 110.945 76.0426 110.945 75.7111 111.03C75.3734 111.091 75.0543 111.23 74.7782 111.434C74.4859 111.65 74.2554 111.94 74.1097 112.273C73.9287 112.65 73.793 113.047 73.7054 113.455C73.6017 113.878 73.5443 114.31 73.5344 114.745C73.5195 115.174 73.5613 115.603 73.6588 116.02C73.7298 116.419 73.8892 116.796 74.1252 117.124C74.288 117.368 74.4998 117.574 74.7471 117.731C74.9867 117.895 75.2561 118.011 75.5401 118.073C75.8278 118.127 76.1231 118.127 76.4108 118.073C76.7086 118.024 76.9971 117.93 77.2659 117.793L77.5302 117.606L77.8412 117.358L78.1677 117.124C78.276 117.05 78.3973 116.998 78.5253 116.969C78.7252 116.891 78.9472 116.891 79.1472 116.969C79.2652 116.983 79.3785 117.024 79.4782 117.089C79.5779 117.153 79.6615 117.24 79.7224 117.342Z" fill="black"/>
<path d="M83.8419 119.954C83.8464 120.22 83.7458 120.477 83.562 120.669C83.3713 120.857 83.1147 120.963 82.8468 120.965C82.5837 120.962 82.3322 120.856 82.1472 120.669C82.0512 120.577 81.9754 120.466 81.9246 120.343C81.8737 120.219 81.8489 120.087 81.8518 119.954C81.8517 119.689 81.9561 119.434 82.1423 119.245C82.3284 119.056 82.5815 118.947 82.8468 118.943C83.1147 118.945 83.3713 119.051 83.562 119.239C83.743 119.433 83.8431 119.689 83.8419 119.954Z" fill="black"/>
<path d="M30.0612 40.7219L32.0047 42.2767L32.3934 41.7791C32.6421 41.4371 32.8753 41.1261 33.093 40.8618C33.3107 40.5975 33.5284 40.3021 33.7927 39.9911L34.0725 39.6024C34.1658 39.5092 34.228 39.4159 34.3057 39.3226L34.5701 39.0738L34.8499 38.8561C34.9955 38.7518 35.1685 38.6923 35.3474 38.6851C35.5168 38.6774 35.6831 38.7328 35.8139 38.8406L35.9538 38.9494C36.0038 38.9878 36.046 39.0353 36.0782 39.0894C36.1624 39.1891 36.2067 39.3165 36.2026 39.447C36.2434 39.552 36.2434 39.6685 36.2026 39.7735C36.1594 39.9065 36.0965 40.0323 36.016 40.1466C35.9533 40.2846 35.8751 40.4151 35.7828 40.5353L35.3164 41.1572L33.5284 43.4894L35.9538 45.4173L37.9128 42.9608L38.3793 42.37L38.5192 42.1834L38.6592 42.0279C38.7229 41.9841 38.7805 41.9318 38.8302 41.8724L38.9857 41.748C39.0886 41.6779 39.2051 41.6302 39.3277 41.6081C39.4543 41.5687 39.5898 41.5687 39.7164 41.6081L39.8563 41.7014L39.9963 41.8102C40.1297 41.9159 40.2229 42.0641 40.2606 42.23C40.3077 42.3978 40.3077 42.5753 40.2606 42.7431C40.1975 42.9886 40.0807 43.2169 39.9185 43.4117C39.8565 43.5137 39.789 43.6123 39.7164 43.7071L39.4987 44.0025C39.0168 44.6555 38.4881 45.3396 37.944 46.0237C37.8196 46.1947 37.7107 46.3191 37.633 46.4124L37.4153 46.6767L37.2288 46.9255L36.9644 47.252C36.8617 47.4342 36.6958 47.5725 36.498 47.6407C36.3661 47.6796 36.2257 47.6796 36.0938 47.6407H35.8761H35.7206L35.3164 47.5785V47.5008H35.1764L34.9743 47.3453L34.881 47.252H34.7877L33.7616 46.3347L31.9891 44.9043L30.3255 43.5982L29.5326 42.9763L28.7863 42.3544L28.553 42.1367L28.3043 41.9346C28.1459 41.7911 28.0189 41.6164 27.9311 41.4215C27.8865 41.3443 27.855 41.2603 27.8378 41.1728C27.8223 41.0906 27.8223 41.0062 27.8378 40.924C27.8478 40.7524 27.9133 40.5887 28.0244 40.4576C28.0533 40.4011 28.0961 40.353 28.1488 40.3176L28.4287 39.96L28.6308 39.6802C28.7108 39.5929 28.7836 39.4993 28.8484 39.4003C28.8484 39.2915 29.035 39.1671 29.1594 38.9805L29.8902 38.0321C30.1234 37.7212 30.3721 37.4257 30.6365 37.1148L30.8697 36.8349C30.9442 36.7345 31.0275 36.6409 31.1184 36.5551C31.1836 36.4612 31.2621 36.3773 31.3517 36.3063L31.6471 36.0886C31.7913 35.9817 31.9651 35.9219 32.1446 35.9176C32.3016 35.9268 32.4526 35.9808 32.5799 36.0731L32.7199 36.1819C32.764 36.2158 32.801 36.258 32.8287 36.3063C32.9134 36.4084 32.9673 36.5324 32.9842 36.6639C32.9769 36.7155 32.9769 36.7678 32.9842 36.8194C32.9917 36.8813 32.9917 36.944 32.9842 37.006L32.8909 37.177L32.7821 37.348C32.7524 37.4187 32.716 37.4864 32.6732 37.5501L32.5333 37.7367L32.0824 38.2964L30.0145 40.6908L30.0612 40.7219Z" fill="black"/>
<path d="M42.2664 38.6231L41.5356 37.6591L39.9808 35.8556L39.3123 35.0471L38.5971 34.1919C38.3638 33.9121 38.1462 33.6478 37.9441 33.4301L37.3377 32.6372L37.1511 32.3728L36.8712 32.0619C36.7497 31.8817 36.6602 31.6818 36.6069 31.4711C36.5685 31.3074 36.5685 31.1372 36.6069 30.9735C36.6739 30.8139 36.7747 30.6707 36.9023 30.5537L37.0734 30.4138L37.2444 30.305C37.364 30.2273 37.5071 30.1943 37.6486 30.2117C37.7533 30.218 37.8548 30.2501 37.9441 30.305L38.0995 30.3983L38.255 30.5226L38.3949 30.6626L38.5349 30.8025C38.5763 30.8506 38.6127 30.9027 38.6437 30.958L38.7681 31.0979L38.9391 31.3L44.1476 37.6591L44.2565 37.7835V37.8768L44.3498 38.0323C44.3436 38.0839 44.3436 38.1361 44.3498 38.1877V38.3588C44.3498 38.3588 44.3498 38.4831 44.3498 38.5453C44.3574 38.6073 44.3574 38.67 44.3498 38.7319C44.3214 38.8829 44.2514 39.0229 44.1476 39.1362C43.9836 39.3592 43.7474 39.5186 43.4791 39.587C43.342 39.6272 43.1963 39.6272 43.0593 39.587C43.0447 39.594 43.0288 39.5975 43.0126 39.5975C42.9965 39.5975 42.9806 39.594 42.966 39.587H43.0904L42.9505 39.4938C42.9015 39.4606 42.8593 39.4183 42.8261 39.3694L42.7017 39.2605L42.5773 39.1517C42.5122 39.0917 42.4547 39.0238 42.4063 38.9496L42.2664 38.6231Z" fill="black"/>
<path d="M52.2957 26.7291C52.4748 27.0409 52.6357 27.3628 52.7776 27.6931C52.9176 28.0352 53.0575 28.3772 53.1663 28.7037C53.3514 29.2982 53.4508 29.9159 53.4617 30.5384C53.464 31.1875 53.3093 31.8276 53.0109 32.4041C52.6982 33.0492 52.247 33.6173 51.6893 34.0677C51.1259 34.5346 50.5223 34.9508 49.8857 35.3116C49.6823 35.4507 49.4693 35.5754 49.2483 35.6847C49.0282 35.788 48.7992 35.8713 48.5642 35.9335C48.4117 35.9767 48.2502 35.9767 48.0977 35.9335H47.9267L47.7868 35.8402L47.6468 35.7158L47.5069 35.5759C47.4993 35.5348 47.4993 35.4926 47.5069 35.4515L47.4292 35.3427L43.2624 27.3044L43.0913 27.1645C43.0846 27.1025 43.0846 27.0399 43.0913 26.9779C43.0723 26.8543 43.0723 26.7284 43.0913 26.6048C43.0581 26.5038 43.0581 26.3948 43.0913 26.2938C43.0913 26.2161 43.0913 26.1539 43.2002 26.0917L43.3245 25.9518C43.3723 25.9061 43.4313 25.8739 43.4956 25.8585C43.5349 25.8499 43.5719 25.833 43.6041 25.8089C43.6363 25.7847 43.6629 25.7539 43.6821 25.7185L46.061 24.5524C46.6457 24.2631 47.2899 24.1141 47.9423 24.1171C48.5564 24.1283 49.1629 24.2549 49.7303 24.4903C50.2997 24.7205 50.8256 25.0465 51.285 25.4542C51.6778 25.8317 52.0177 26.2606 52.2957 26.7291ZM51.0518 30.7716C51.0837 30.3744 51.0469 29.9747 50.943 29.59C50.8449 29.1758 50.6878 28.7778 50.4766 28.4083C50.2744 28.0386 50.0291 27.6941 49.7458 27.3822C49.4852 27.0903 49.1872 26.8342 48.8596 26.6203C48.6234 26.4802 48.3565 26.4001 48.0822 26.3871C47.8042 26.3416 47.5206 26.3416 47.2426 26.3871C46.9389 26.4519 46.6422 26.5456 46.3564 26.667C46.0631 26.7776 45.7775 26.9075 45.5012 27.0557L45.921 27.833L46.3408 28.6415C46.4963 28.9836 46.6673 29.3101 46.8384 29.6211C47.0094 29.932 47.1649 30.2585 47.3203 30.5539L48.8751 33.4303L49.6836 32.9483C49.9399 32.7864 50.1749 32.5932 50.3833 32.373C50.5887 32.1647 50.757 31.9228 50.8808 31.6578C50.9928 31.3757 51.0508 31.0751 51.0518 30.7716Z" fill="black"/>
<path d="M64.5634 19.3905C64.6673 19.6152 64.7255 19.8583 64.7344 20.1057C64.7505 20.3335 64.7505 20.5621 64.7344 20.7898C64.7344 21.2252 64.6412 21.7071 64.5634 22.2358L64.3769 23.7906C64.2991 24.3192 64.2369 24.8167 64.1747 25.3453C64.1125 25.874 64.0503 26.2005 64.0037 26.5114C63.9571 26.8224 63.9104 27.1333 63.8638 27.4909C63.8152 27.8581 63.7425 28.2217 63.6461 28.5793C63.557 28.9282 63.4319 29.2668 63.273 29.5899C63.1253 29.8922 62.8999 30.1497 62.6199 30.3362C62.386 30.5076 62.1012 30.5952 61.8115 30.585C61.5455 30.5674 61.2885 30.4817 61.0652 30.3362C60.8135 30.1808 60.5878 29.9866 60.3966 29.7609C60.1743 29.5277 59.9763 29.2724 59.8058 28.9991C59.6192 28.7348 59.4482 28.486 59.2927 28.2217C59.1372 27.9574 58.9973 27.7553 58.8729 27.5842C58.4065 26.9312 57.9711 26.2471 57.5513 25.5164C57.1316 24.7856 56.7118 24.086 56.3075 23.4174L55.9033 22.7178C55.7551 22.4457 55.6353 22.1592 55.5457 21.8626C55.4848 21.5913 55.4848 21.3099 55.5457 21.0386C55.5743 20.9033 55.6342 20.7766 55.7206 20.6686C55.807 20.5606 55.9175 20.4743 56.0432 20.4167L56.2298 20.3234L56.4163 20.2456H56.6185H56.8361H57.0072H57.1627L57.3026 20.37L57.4581 20.51L57.5824 20.681C57.615 20.7353 57.6514 20.7873 57.6913 20.8365C57.7182 20.8989 57.7549 20.9567 57.8001 21.0075L57.9089 21.163L58.0644 21.4117L61.5782 27.3355L62.4956 20.5255V20.2456C62.4956 20.2456 62.4956 20.1368 62.4956 20.0746C62.5039 20.0023 62.5039 19.9293 62.4956 19.8569V19.6859C62.4909 19.6186 62.4909 19.5511 62.4956 19.4838C62.4956 19.4838 62.4956 19.375 62.4956 19.2972L62.5888 19.1107C62.6095 19.0623 62.6415 19.0196 62.6821 18.9863L62.791 18.8774L63.0086 18.7531H63.1797H63.5839C63.7631 18.7593 63.9363 18.8189 64.0814 18.9241C64.2912 19.0191 64.4616 19.1839 64.5634 19.3905Z" fill="black"/>
<path d="M72.6327 20.5411L72.3995 23.0132H73.037L74.1875 23.091L75.307 23.1998H75.6801H76.0377C76.1591 23.2217 76.2787 23.2529 76.3953 23.2931L76.7374 23.4019C76.9018 23.4749 77.0459 23.587 77.1572 23.7284C77.2472 23.8663 77.2857 24.0314 77.266 24.1949V24.3814C77.282 24.4373 77.282 24.4966 77.266 24.5525C77.2323 24.6744 77.1548 24.7796 77.0483 24.8479C77.0062 24.8921 76.9556 24.9273 76.8994 24.9513C76.8433 24.9754 76.7829 24.9878 76.7218 24.9878H76.3176H75.8667H75.1204L72.1974 24.7546L71.9175 27.8641L75.0271 28.1596H75.7579H76.0066H76.2087H76.4264H76.6285C76.7375 28.2102 76.8373 28.2785 76.9239 28.3617C77.0099 28.4669 77.0734 28.5886 77.1105 28.7193V28.8748C77.1182 28.9367 77.1182 28.9994 77.1105 29.0613C77.0963 29.2302 77.025 29.3892 76.9084 29.5122C76.7831 29.6423 76.6198 29.7294 76.442 29.761C76.2058 29.8343 75.9575 29.8607 75.7112 29.8387H74.8872C74.0631 29.8387 73.208 29.7143 72.3218 29.6211H71.8243H71.4822H71.1712H70.767C70.5538 29.6334 70.3436 29.567 70.1762 29.4345C70.0691 29.3527 69.9837 29.246 69.9274 29.1235C69.9274 29.1235 69.9274 29.0458 69.9274 29.0147C69.9274 28.9836 69.9274 29.0147 69.9274 29.0147C69.9201 28.9579 69.9201 28.9004 69.9274 28.8437C69.9122 28.7877 69.9122 28.7286 69.9274 28.6726C69.9197 28.6211 69.9197 28.5687 69.9274 28.5172C69.9351 28.4656 69.9351 28.4132 69.9274 28.3617V28.0974C69.9207 28.0562 69.9207 28.0142 69.9274 27.973C69.9274 27.973 69.9274 27.8952 69.9274 27.8486L70.0362 26.6203L70.2539 24.3503L70.4249 22.2514C70.4249 21.8627 70.4249 21.5362 70.5182 21.2408C70.6115 20.9454 70.5182 20.6188 70.6115 20.2768V20.1991V19.8725C70.6191 19.7742 70.6191 19.6755 70.6115 19.5771C70.6422 19.3599 70.722 19.1526 70.8447 18.9708L70.9847 18.7531C71.0485 18.6941 71.1222 18.6468 71.2023 18.6132C71.3567 18.5376 71.5286 18.5053 71.6999 18.5199C71.7614 18.5069 71.8249 18.5069 71.8864 18.5199H72.3529H72.6949H73.0525H73.5656L74.7628 18.5976L75.9444 18.7065H76.302H76.6596C76.7731 18.6905 76.8882 18.6905 77.0017 18.7065L77.3437 18.8308C77.5075 18.8977 77.6518 19.0047 77.7635 19.1418C77.8414 19.2789 77.8792 19.4352 77.8724 19.5927V19.7793C77.8863 19.8302 77.8863 19.8838 77.8724 19.9347C77.8403 20.0657 77.7633 20.1813 77.6547 20.2612H77.5148H77.3437H77.1416H76.4886H75.7734L72.6638 20.0125L72.6327 20.5411Z" fill="black"/>
<path d="M87.9003 33.0104C87.8849 33.1132 87.8419 33.2099 87.7759 33.2902L87.636 33.4146H87.465C87.336 33.4327 87.2052 33.4327 87.0763 33.4146H86.8275C86.759 33.4138 86.691 33.4033 86.6254 33.3835C86.4769 33.3177 86.356 33.2023 86.2833 33.057C86.1647 32.8658 86.0806 32.6553 86.0346 32.4351C86.0346 32.3418 86.0346 32.233 86.0346 32.1086C86.0196 31.9847 86.0196 31.8594 86.0346 31.7355L85.5215 27.9884L85.2882 27.9107H85.0395L84.4487 27.7086L83.8734 27.5064L83.5935 27.3976L82.5985 30.0874C82.6073 30.1597 82.6073 30.2328 82.5985 30.305L82.5052 30.5227C82.5091 30.59 82.5091 30.6575 82.5052 30.7248C82.5052 30.7248 82.5052 30.8648 82.3963 30.927C82.3317 31.0395 82.2475 31.1395 82.1476 31.2224C82.0332 31.3122 81.9005 31.3759 81.7589 31.4089C81.4776 31.4497 81.1911 31.3891 80.9504 31.2379C80.832 31.1562 80.7271 31.0565 80.6394 30.9425C80.6336 30.896 80.6336 30.849 80.6394 30.8026C80.6394 30.8026 80.6394 30.6782 80.6394 30.6316C80.6309 30.5749 80.6309 30.5172 80.6394 30.4605V30.274C80.6306 30.1757 80.6306 30.0768 80.6394 29.9785L83.749 21.5361V21.3495L83.8423 21.1785C83.896 21.0719 83.9699 20.9768 84.06 20.8986C84.1183 20.8056 84.2058 20.7346 84.3087 20.6965C84.4166 20.6759 84.5274 20.6759 84.6352 20.6965C84.8278 20.7236 85.016 20.7759 85.195 20.852L86.5165 21.3495C86.9519 21.505 87.3872 21.676 87.807 21.8626C88.1099 21.9919 88.4057 22.1372 88.6932 22.2979C88.9885 22.4442 89.2609 22.6327 89.5017 22.8576L89.9215 23.2463C90.0539 23.3839 90.1641 23.5412 90.248 23.7128C90.4804 24.1602 90.608 24.6547 90.6212 25.1587C90.6401 25.6514 90.5608 26.1429 90.3879 26.6047C90.2107 27.1261 89.8933 27.5887 89.4706 27.9418C89.0324 28.3002 88.4819 28.4928 87.9158 28.4859H87.7293L88.0869 31.751V32.0309C88.0869 32.0309 88.0869 32.1397 88.0869 32.1863C88.0944 32.2483 88.0944 32.3109 88.0869 32.3729C88.0945 32.4349 88.0945 32.4975 88.0869 32.5595C88.0782 32.6266 88.0782 32.6945 88.0869 32.7616C87.9314 32.7927 87.9158 32.9171 87.9003 33.0104ZM86.1278 26.3559C86.3028 26.4171 86.4867 26.4486 86.672 26.4492C86.8575 26.4508 87.0418 26.4192 87.2162 26.3559C87.3893 26.2927 87.5518 26.2036 87.6982 26.0916C87.8357 25.9867 87.943 25.8472 88.0091 25.6873C88.1167 25.4949 88.1732 25.2781 88.1732 25.0576C88.1732 24.8372 88.1167 24.6204 88.0091 24.428C87.7555 24.0522 87.3915 23.7643 86.9674 23.6039L86.0346 23.2308L85.0706 22.8732C84.9307 23.2774 84.7752 23.6972 84.6197 24.117L84.06 25.6718L86.1278 26.3559Z" fill="black"/>
<path d="M99.6549 36.1978C99.6049 36.3652 99.5371 36.5267 99.4528 36.6797C99.3655 36.8421 99.2668 36.9979 99.1574 37.1462C99.0467 37.2981 98.9273 37.4435 98.7998 37.5815C98.6843 37.7001 98.5595 37.8093 98.4266 37.908C97.9385 38.2815 97.3461 38.4935 96.7319 38.5144C96.0795 38.5274 95.4306 38.4166 94.8195 38.1879C94.1892 37.9413 93.6056 37.589 93.0937 37.1462C92.586 36.7252 92.1817 36.1933 91.9121 35.5914C91.7481 35.2496 91.648 34.8808 91.6167 34.503C91.5705 34.1365 91.5705 33.7657 91.6167 33.3991C91.6351 33.2611 91.6828 33.1286 91.7566 33.0104C91.8288 32.8762 91.9297 32.7594 92.052 32.6684C92.1646 32.5757 92.298 32.5117 92.4407 32.4818C92.5876 32.4363 92.7447 32.4363 92.8916 32.4818L93.2025 32.6684C93.3107 32.7455 93.4053 32.8401 93.4824 32.9483C93.5607 33.0504 93.6187 33.1664 93.6534 33.2903C93.6927 33.4275 93.6927 33.5729 93.6534 33.7101C93.6074 33.9672 93.6074 34.2304 93.6534 34.4875C93.7001 34.8099 93.8195 35.1175 94.0027 35.3869C94.1859 35.6563 94.428 35.8804 94.7107 36.0423C94.9869 36.2328 95.299 36.365 95.628 36.431C95.9235 36.5094 96.2343 36.5094 96.5298 36.431C96.8124 36.3487 97.059 36.1734 97.2294 35.9334C97.3652 35.7713 97.461 35.5796 97.5093 35.3737C97.5395 35.1988 97.5395 35.02 97.5093 34.8451C97.4546 34.6694 97.3761 34.502 97.2761 34.3476C97.1725 34.1623 97.0472 33.9901 96.9029 33.8345C96.7279 33.6416 96.541 33.4598 96.3432 33.2903L95.9545 32.7617C95.7576 32.5751 95.571 32.3885 95.3948 32.202C95.2183 32.0093 95.0668 31.7951 94.9439 31.5645C94.6701 31.1577 94.5438 30.6693 94.5863 30.1807C94.6163 29.7028 94.7602 29.239 95.0061 28.8281C95.251 28.4173 95.5794 28.0624 95.97 27.7864C96.3683 27.5081 96.8263 27.3271 97.3072 27.2577C97.7715 27.2133 98.2399 27.2772 98.6754 27.4443C99.166 27.6386 99.6349 27.8835 100.075 28.1751C100.334 28.3585 100.583 28.5557 100.821 28.7659C101.059 28.9782 101.283 29.2068 101.49 29.45C101.675 29.6799 101.841 29.9242 101.987 30.1807C102.123 30.4092 102.228 30.655 102.298 30.9115C102.351 31.0986 102.377 31.2923 102.376 31.4868C102.407 31.6981 102.407 31.9129 102.376 32.1242C102.324 32.3102 102.228 32.4809 102.096 32.6217C102.023 32.6877 101.936 32.7372 101.843 32.7667C101.749 32.7962 101.649 32.8051 101.552 32.7928C101.379 32.789 101.213 32.7228 101.085 32.6062C100.959 32.5102 100.862 32.381 100.805 32.2331C100.744 32.0861 100.692 31.9355 100.65 31.7822C100.65 31.6267 100.572 31.4712 100.541 31.3468C100.416 30.9783 100.209 30.6433 99.9348 30.3673C99.6575 30.0835 99.3439 29.8377 99.0019 29.6366C98.8088 29.5291 98.6057 29.4406 98.3955 29.3723C98.1945 29.3425 97.9902 29.3425 97.7891 29.3723C97.5993 29.4062 97.4157 29.4691 97.245 29.5588C97.0666 29.673 96.9175 29.8274 96.8096 30.0097C96.7188 30.1359 96.6748 30.2899 96.6853 30.4451C96.6846 30.5952 96.7164 30.7437 96.7785 30.8804C96.8417 31.0216 96.9255 31.1526 97.0273 31.2691L97.3538 31.6267C97.6959 31.9687 98.0535 32.2797 98.4266 32.5907C98.7894 32.8997 99.1038 33.2613 99.3595 33.6635C99.6169 34.0557 99.7964 34.4938 99.8881 34.9539C99.9116 35.3813 99.8316 35.808 99.6549 36.1978Z" fill="black"/>
<path d="M99.9644 56.0677C99.7 55.4147 99.4046 54.7772 99.0781 54.1397C95.4944 46.9956 89.4878 41.3581 82.131 38.2343C75.9853 35.6366 69.2043 34.9319 62.6559 36.2105C56.1075 37.4892 50.0896 40.6929 45.3725 45.4116C40.6555 50.1303 37.4539 56.1493 36.1776 62.6982C34.9013 69.2471 35.6084 76.0278 38.2083 82.1725C38.6281 83.1676 39.11 84.1471 39.6231 85.1111C43.7233 92.6882 50.5834 98.3958 58.7799 101.049C66.9763 103.703 75.8799 103.099 83.6428 99.3625C91.4057 95.6261 97.432 89.0442 100.471 80.9826C103.51 72.9211 103.329 63.999 99.9644 56.0677ZM41.6599 69.1434C41.6638 62.4611 44.1072 56.01 48.5312 51.0018C52.9553 45.9936 59.0555 42.7729 65.6864 41.9445C72.3172 41.1161 79.0224 42.737 84.5425 46.5029C90.0627 50.2688 94.0181 55.9205 95.6658 62.3965C97.3136 68.8725 96.5403 75.7274 93.4913 81.6736C90.4422 87.6198 85.3272 92.2482 79.1067 94.6897C72.8863 97.1311 65.9886 97.2176 59.7089 94.9328C53.4293 92.6481 48.1998 88.1493 45.0027 82.2814C42.8078 78.2503 41.6586 73.7333 41.6599 69.1434Z" fill="#F7BF2A"/>
<path d="M99.9657 56.0679C99.7013 55.4149 99.3904 54.7775 99.0794 54.14C97.4844 50.9198 95.3848 47.9752 92.8603 45.4176C92.596 45.1378 92.3161 44.8735 92.0207 44.6092C91.5854 44.2049 91.1345 43.8162 90.6836 43.4275C89.6111 42.5415 88.4899 41.7162 87.3252 40.9554L86.4857 40.4423C86.1125 40.2091 85.7238 39.9759 85.3351 39.7738C84.3273 39.1999 83.2893 38.6809 82.2255 38.219C79.25 36.9626 76.1075 36.1456 72.8968 35.7935C72.3993 35.7935 71.8862 35.6847 71.342 35.6536C70.7979 35.6225 69.8806 35.6536 69.1343 35.6536H67.9682H66.7865L65.4028 35.778C62.191 36.1241 59.0477 36.9413 56.0741 38.2034C49.9882 40.7672 44.7951 45.0714 41.1467 50.5759C37.4982 56.0803 35.5569 62.5399 35.5664 69.1437C35.5664 70.2476 35.5664 71.3515 35.7375 72.4398C36.0515 75.8028 36.8855 79.0966 38.2096 82.2039C38.6294 83.1989 39.1113 84.1785 39.6244 85.1424C40.6171 86.9769 41.7778 88.7153 43.0916 90.3354C43.6202 90.9729 44.1489 91.5792 44.6464 92.17L45.2839 92.8231C50.7832 98.3178 58.0214 101.73 65.7595 102.476C73.4976 103.222 81.2545 101.256 87.7024 96.9132C94.1503 92.5704 98.8884 86.1217 101.106 78.6706C103.323 71.2195 102.881 63.2294 99.8568 56.0679H99.9657ZM95.9543 74.3833C95.0848 78.8221 93.1309 82.977 90.2667 86.4778C87.4026 89.9786 83.717 92.7167 79.5384 94.4482C75.3597 96.1796 70.8177 96.8508 66.3169 96.4017C61.816 95.9527 57.4961 94.3975 53.7419 91.8746C51.2169 90.1788 48.9895 88.0775 47.1496 85.6555L46.5588 84.847C45.9964 84.0838 45.4773 83.2896 45.004 82.4682L44.8796 82.2505C44.4754 81.5042 44.1022 80.6957 43.7602 79.9494C42.3575 76.701 41.6022 73.21 41.5368 69.6723V69.1437C41.533 67.8852 41.6161 66.6281 41.7856 65.3811C41.9343 64.5528 42.1263 63.7328 42.3608 62.9245C43.4844 58.1271 45.8768 53.7198 49.2877 50.164C52.6985 46.6082 57.0025 44.0345 61.749 42.7123C63.1034 42.3311 64.4865 42.0608 65.8848 41.9038C66.9168 41.7818 67.9551 41.7195 68.9943 41.7173C73.6338 41.7127 78.1981 42.8899 82.2567 45.1378L82.5832 45.3244C86.8037 47.7099 90.3173 51.1705 92.7669 55.3542C95.2165 59.5379 96.5147 64.2956 96.5296 69.1437C96.5031 70.9044 96.3105 72.6587 95.9543 74.3833Z" fill="#F7BF2A"/>
<path d="M99.9656 56.068C99.7013 55.4149 99.3903 54.7775 99.0794 54.14C97.4843 50.9198 95.3848 47.9752 92.8602 45.4177C92.5959 45.1378 92.3161 44.8735 92.0207 44.6092C91.5853 44.2049 91.1344 43.8162 90.6836 43.4276C89.6111 42.5416 88.4899 41.7162 87.3252 40.9554L86.4856 40.4424C86.1125 40.2091 85.7238 39.9759 85.3351 39.7738C84.6354 39.3851 83.9202 39.012 83.1739 38.6699L82.21 38.2501C79.2344 36.9937 76.092 36.1767 72.8813 35.8246C72.3837 35.8246 71.8707 35.7158 71.3265 35.6847C70.7823 35.6536 69.865 35.6847 69.1187 35.6847H67.9681H66.7865L65.4027 35.8091C62.191 36.1552 59.0477 36.9725 56.074 38.2346C49.993 40.7962 44.8033 45.0957 41.1553 50.594C37.5072 56.0924 35.563 62.5452 35.5664 69.1437C35.5664 70.2476 35.5664 71.3515 35.7374 72.4398C36.0515 75.8028 36.8854 79.0967 38.2095 82.2039C38.6293 83.199 39.1113 84.1785 39.6244 85.1424C40.6171 86.9769 41.7778 88.7153 43.0916 90.3354C43.6202 90.9729 44.1488 91.5793 44.6464 92.1701L45.2838 92.8231C46.89 94.4339 48.656 95.8769 50.5545 97.1298C52.2928 98.2753 54.1295 99.2639 56.0429 100.084C62.1886 102.682 68.9696 103.386 75.518 102.108C82.0664 100.829 88.0843 97.6254 92.8013 92.9067C97.5184 88.1879 100.72 82.1689 101.996 75.62C103.273 69.0712 102.566 62.2904 99.9656 56.1457V56.068ZM73.0056 96.2747C67.9776 96.9995 62.8471 96.3105 58.1885 94.2846C56.655 93.626 55.1871 92.8243 53.804 91.8902C51.2791 90.1944 49.0517 88.093 47.2118 85.6711L46.6209 84.8626C46.0586 84.0994 45.5395 83.3052 45.0661 82.4838L44.9418 82.2661C44.5375 81.5198 44.1644 80.7113 43.8223 79.965C42.4196 76.7166 41.6644 73.2256 41.599 69.6879V69.1437C41.5951 67.8853 41.6782 66.6281 41.8477 65.3811C41.976 64.5539 42.1472 63.7339 42.3608 62.9246C43.4844 58.1271 45.8768 53.7199 49.2877 50.164C52.6985 46.6082 57.0024 44.0345 61.749 42.7124C63.1034 42.3312 64.4865 42.0608 65.8847 41.9039C66.9168 41.7819 67.955 41.7196 68.9943 41.7173C73.6338 41.7128 78.198 42.8899 82.2566 45.1378L82.5831 45.3244C83.2512 45.7008 83.8999 46.1107 84.5266 46.5527C88.3985 49.213 91.5245 52.8207 93.6066 57.0319L93.9175 57.6694C95.6129 61.2585 96.5043 65.1744 96.5295 69.1437C96.5255 70.9129 96.3537 72.6777 96.0165 74.4144C95.1686 78.694 93.3171 82.7113 90.6142 86.1359C87.9113 89.5605 84.4341 92.2946 80.4686 94.1136C78.108 95.1904 75.6053 95.9234 73.0367 96.2903L73.0056 96.2747Z" fill="#F7BF2A"/>
<path d="M69.0863 103.349C64.5984 103.351 60.1543 102.467 56.0084 100.749C51.8624 99.0308 48.0961 96.5118 44.9249 93.3361C44.1268 92.5484 43.365 91.7088 42.6394 90.8174C41.282 89.1531 40.0798 87.368 39.0478 85.4845C38.5192 84.505 38.0372 83.4944 37.6019 82.4837C36.7354 80.4116 36.069 78.2614 35.6118 76.0625C35.3714 74.8965 35.1949 73.7183 35.0831 72.5331C34.9743 71.4137 34.9121 70.2942 34.9121 69.1748C34.9205 60.7711 38.0222 52.6647 43.6256 46.4018C49.2289 40.1389 56.9417 36.1579 65.2926 35.2183L66.7075 35.0939H67.9202H69.0863C69.8481 35.0939 70.6411 35.0939 71.3407 35.0939L72.8955 35.2338C76.1645 35.5968 79.364 36.4294 82.3953 37.7059C83.4836 38.1723 84.5564 38.701 85.5048 39.2607L86.6709 39.9448L87.5261 40.4734C89.229 41.5739 90.8315 42.8226 92.3148 44.2049L93.1699 45.0134C95.778 47.6104 97.9467 50.6141 99.5912 53.9068C99.9021 54.5442 100.213 55.2128 100.493 55.8814C103.145 62.1433 103.864 69.0548 102.559 75.7287C101.255 82.4025 97.9848 88.5341 93.1699 93.3361C90.0106 96.506 86.2573 99.0219 82.1248 100.74C77.9924 102.458 73.5617 103.345 69.0863 103.349ZM69.0863 36.3066H67.9669H66.8008L65.4481 36.4154C57.4119 37.307 49.9868 41.1308 44.5937 47.1549C39.2007 53.1791 36.2186 60.9804 36.2181 69.0659C36.2181 70.1387 36.2181 71.2271 36.3736 72.2999C36.5291 73.3727 36.669 74.5854 36.8867 75.6893C37.3199 77.8198 37.9604 79.9027 38.7991 81.9085C39.2189 82.888 39.6853 83.8675 40.1984 84.8004C41.1872 86.614 42.3428 88.3317 43.65 89.9312C44.3497 90.7708 45.0804 91.5948 45.8422 92.3566C51.2314 97.7534 58.3297 101.108 65.9207 101.846C73.5118 102.583 81.1231 100.658 87.4505 96.4002C93.778 92.1421 98.4277 85.8161 100.603 78.506C102.778 71.196 102.344 63.357 99.3735 56.3322C99.0937 55.6792 98.7983 55.0418 98.5028 54.4354C96.9065 51.267 94.8061 48.379 92.2837 45.8841L91.5218 45.1378C90.1041 43.8209 88.5747 42.6296 86.9508 41.5773L86.1268 41.0642L84.9918 40.4112C81.2052 38.3252 77.0495 36.9945 72.7556 36.4932L71.2008 36.3688C70.5478 36.2755 69.8171 36.2444 69.0863 36.2444V36.3066Z" fill="black"/>
<path d="M69.0874 97.2073C61.6653 97.1967 54.5513 94.2381 49.3105 88.9825C48.6474 88.3215 48.0194 87.626 47.4292 86.8991C46.3038 85.5375 45.3144 84.069 44.4751 82.5146C44.0398 81.7217 43.6511 80.9598 43.2935 80.058C42.532 78.3593 41.9434 76.5883 41.5366 74.7718C41.35 73.8233 41.1945 72.8438 41.1012 71.8799C41.008 70.9159 40.9769 70.0297 40.9769 69.1123C40.945 62.1847 43.4838 55.4914 48.102 50.3275C52.7202 45.1637 59.0896 41.8962 65.9778 41.1573L67.1284 41.0485H68.1234H69.0874C69.7093 41.0485 70.3312 41.0485 70.9376 41.0485C71.544 41.0485 71.7772 41.0485 72.2125 41.1573C74.8892 41.4541 77.5081 42.1403 79.9864 43.1941C80.8858 43.5687 81.7631 43.9944 82.614 44.469C82.9405 44.64 83.267 44.8266 83.578 45.0287L84.2776 45.4641C85.6798 46.38 86.9964 47.4207 88.2113 48.5736C88.4445 48.7913 88.6777 49.009 88.8954 49.2422C89.8195 50.1492 90.672 51.1264 91.4452 52.1652C92.489 53.5403 93.4049 55.0079 94.1816 56.5497L94.9279 58.1045C96.7319 62.3763 97.4506 67.0282 97.0197 71.6452C96.5888 76.2622 95.0218 80.7008 92.4585 84.565C89.8952 88.4292 86.4153 91.5989 82.3292 93.7913C78.2431 95.9836 73.6778 97.1305 69.0407 97.1296L69.0874 97.2073ZM69.0874 42.3389H68.1701C67.8591 42.3389 67.5326 42.3389 67.2216 42.3389L66.1177 42.4322C63.5397 42.7285 61.0196 43.4044 58.6392 44.4379C53.7872 46.49 49.6493 49.9295 46.7449 54.3248C43.8406 58.7201 42.2991 63.8753 42.314 69.1434C42.3089 70.0261 42.3504 70.9083 42.4384 71.7866C42.5262 72.7102 42.6612 73.6287 42.8426 74.5385C43.2 76.2632 43.7206 77.95 44.3974 79.576C44.7394 80.369 45.1126 81.1308 45.5324 81.9238C46.3323 83.406 47.2748 84.8068 48.3465 86.1062C48.9057 86.7968 49.5026 87.456 50.1345 88.0807C52.5707 90.5375 55.4656 92.492 58.6548 93.8334C61.9558 95.2185 65.4998 95.9318 69.0796 95.9318C72.6594 95.9318 76.2034 95.2185 79.5044 93.8334C82.7448 92.4634 85.6835 90.4686 88.1529 87.9629C90.6223 85.4571 92.5739 82.4895 93.8964 79.2295C95.2189 75.9695 95.8863 72.481 95.8606 68.963C95.8348 65.4451 95.1164 61.9667 93.7463 58.7264C93.5286 58.1977 93.2954 57.6795 93.0466 57.1716C92.3053 55.7041 91.4365 54.3046 90.4501 52.9892C89.7002 52.0026 88.8847 51.0676 88.0091 50.1906L87.4028 49.5998C86.2487 48.5271 85.0056 47.5545 83.6868 46.6923L83.0183 46.2725L82.0854 45.7439C81.2925 45.3086 80.5306 44.9043 79.5977 44.5312C77.2239 43.5219 74.7146 42.8671 72.1503 42.5877L70.9376 42.4789L69.0874 42.3389Z" fill="black"/>
<path d="M88.9564 56.2543C88.4737 55.529 87.9548 54.8285 87.4017 54.1553C86.8155 53.4397 86.1873 52.7595 85.5204 52.1185C85.3649 51.9475 85.1783 51.792 85.0073 51.6365C84.2033 50.8891 83.3402 50.208 82.4263 49.5998C81.6547 49.0668 80.8498 48.5839 80.0164 48.1538L79.3012 47.7962H79.1924C78.9848 47.6945 78.7588 47.6355 78.528 47.6228C78.2971 47.6101 78.0661 47.6439 77.8485 47.7222C77.631 47.8006 77.4314 47.9218 77.2616 48.0787C77.0919 48.2356 76.9554 48.4251 76.8602 48.6358C76.7561 48.8383 76.6977 49.0612 76.6892 49.2888C76.6785 49.527 76.7155 49.7648 76.798 49.9885C76.957 50.4215 77.2813 50.7738 77.6998 50.968C78.7476 51.4622 79.7515 52.0448 80.7005 52.7093C80.183 53.0199 79.7119 53.402 79.3012 53.8443L79.1768 53.9843C78.8659 53.7044 78.5549 53.4245 78.2284 53.1602L77.9952 52.9581C77.5916 52.6451 77.1712 52.3545 76.7358 52.0874C76.4093 51.8853 76.0673 51.6987 75.7252 51.5277L75.5231 51.4189L75.2899 51.31C74.21 50.8034 73.0715 50.4326 71.9004 50.2061L71.1852 50.0818H70.9365V48.216C70.9365 47.7501 70.7514 47.3032 70.4219 46.9737C70.0924 46.6442 69.6455 46.4591 69.1796 46.4591C68.7136 46.4591 68.2667 46.6442 67.9373 46.9737C67.6078 47.3032 67.4227 47.7501 67.4227 48.216V50.0818C64.853 50.4055 62.4162 51.4092 60.3639 52.9892L60.1307 53.1913C59.8042 53.4556 59.4933 53.7355 59.1823 54.0309L59.0424 53.8754C58.6352 53.4294 58.1635 53.0468 57.6431 52.7404C58.5996 52.0791 59.6083 51.4967 60.6593 50.9991C61.0317 50.8209 61.3301 50.5184 61.5033 50.1438C61.6764 49.7691 61.7134 49.3458 61.6078 48.9468C61.5783 48.851 61.5419 48.7575 61.4989 48.6669C61.4519 48.5549 61.389 48.4502 61.3124 48.3559C61.073 48.0308 60.7273 47.7998 60.3353 47.7032C59.9432 47.6066 59.5297 47.6505 59.1667 47.8273L57.8918 48.4648C57.5187 48.6669 57.1611 48.869 56.819 49.0867C53.8177 50.8927 51.2532 53.3403 49.3094 56.2543C48.9052 56.8917 48.5165 57.5447 48.1744 58.2133C47.7622 59.0062 47.3936 59.8211 47.0705 60.6543C46.4039 62.414 45.9447 64.2455 45.7023 66.1116L45.609 66.9978C45.609 67.6975 45.5157 68.3971 45.5157 69.1123C45.5087 71.4899 45.8652 73.8546 46.573 76.1244L46.6663 76.4043C47.4184 78.7171 48.5252 80.899 49.9469 82.8722C50.5741 83.7467 51.2598 84.5778 51.9992 85.3598L52.4034 85.7796C55.3006 88.6884 58.9077 90.7894 62.8671 91.8744C64.8949 92.4217 66.986 92.6988 69.0863 92.6984C73.3346 92.7005 77.5048 91.5573 81.1582 89.3893C84.8116 87.2212 87.8131 84.1085 89.8467 80.3786C91.8803 76.6487 92.8709 72.4395 92.7143 68.1942C92.5576 63.9488 91.2595 59.8241 88.9564 56.2543ZM81.4002 56.7518C81.4515 56.6321 81.5139 56.5176 81.5868 56.4097C81.9629 55.8838 82.5141 55.5089 83.1415 55.3525C83.3088 55.3072 83.4851 55.3079 83.652 55.3544C83.8189 55.4009 83.9702 55.4916 84.09 55.6168C84.3387 55.8967 84.5719 56.1921 84.8207 56.4875L84.9917 56.7051C87.1704 59.4901 88.5804 62.7979 89.0808 66.2982C89.1009 66.4285 89.0927 66.5617 89.0567 66.6886C89.0207 66.8154 88.9578 66.9331 88.8722 67.0334C88.7866 67.1338 88.6804 67.2145 88.5607 67.27C88.4411 67.3256 88.3109 67.3547 88.1791 67.3554H83.2193C83.3281 66.8268 83.4214 66.2982 83.4836 65.8006C83.5458 65.3031 83.4836 64.8056 83.4836 64.2459C83.482 62.3065 83.0908 60.3872 82.3331 58.602C82.0522 57.965 81.7302 57.347 81.3691 56.7518H81.4002ZM76.2227 56.9384C76.4032 56.8394 76.6117 56.8039 76.8148 56.8378C77.0178 56.8716 77.2036 56.9727 77.3422 57.1249C78.3457 58.2762 79.0929 59.6276 79.5344 61.0896C79.7888 61.9126 79.9402 62.7638 79.9853 63.6239C79.9853 63.8261 79.9853 64.0282 79.9853 64.2459C79.9845 65.0563 79.8959 65.8644 79.721 66.6558C79.6725 66.8545 79.5589 67.0313 79.3983 67.1581C79.2377 67.2849 79.0394 67.3543 78.8348 67.3554H74.0771C73.9118 67.354 73.7497 67.3086 73.6077 67.2239C73.4656 67.1392 73.3486 67.0182 73.2687 66.8734C73.2382 66.808 73.2018 66.7456 73.1598 66.6869C73.0048 66.4528 72.8278 66.2342 72.6312 66.0339C72.2542 65.6023 71.8009 65.2439 71.2941 64.9766C71.1534 64.8972 71.0362 64.7821 70.9543 64.6428C70.8724 64.5036 70.8287 64.3452 70.8276 64.1837V59.2705C70.8285 59.1196 70.8816 58.9735 70.978 58.8573C71.0744 58.7411 71.208 58.6618 71.3563 58.6331C73.0544 58.3733 74.6891 57.7985 76.1761 56.9384H76.2227ZM66.894 74.9117C66.1064 74.7578 65.3393 74.5125 64.6085 74.1809C63.1848 73.5365 61.9133 72.5987 60.877 71.429C60.8357 71.3789 60.8095 71.3181 60.8015 71.2537C60.7934 71.1893 60.8039 71.1239 60.8316 71.0652C60.8593 71.0065 60.9031 70.9569 60.958 70.9222C61.0128 70.8875 61.0764 70.8692 61.1413 70.8692H64.0799C64.2424 70.8652 64.4028 70.9067 64.543 70.9892C64.6831 71.0716 64.7974 71.1916 64.8728 71.3357C65.18 71.9358 65.6089 72.4653 66.1322 72.8905C66.3497 73.0639 66.5841 73.215 66.8318 73.3414C66.9747 73.4182 67.0938 73.5327 67.176 73.6726C67.2583 73.8124 67.3005 73.9721 67.2983 74.1343V74.6474C67.2804 74.7241 67.2366 74.7923 67.1743 74.8404C67.112 74.8886 67.035 74.9137 66.9562 74.9117H66.894ZM67.8425 68.9413C67.8785 68.671 68.0035 68.4204 68.1978 68.2289C68.392 68.0375 68.6444 67.9162 68.9153 67.8841C69.0874 67.8667 69.2613 67.8856 69.4258 67.9393C69.5903 67.993 69.7418 68.0805 69.8706 68.1961C69.9994 68.3117 70.1026 68.4529 70.1737 68.6106C70.2448 68.7684 70.2822 68.9393 70.2835 69.1123V69.1434C70.2599 69.4528 70.1202 69.7417 69.8923 69.9523C69.6645 70.1628 69.3654 70.2793 69.0552 70.2784C68.8956 70.2629 68.7407 70.2159 68.5994 70.1401C68.4581 70.0643 68.3332 69.9613 68.232 69.8369C68.1308 69.7126 68.0553 69.5694 68.0097 69.4157C67.9642 69.2619 67.9496 69.1007 67.9668 68.9413H67.8425ZM70.8121 74.0721C70.8098 73.9099 70.8521 73.7502 70.9344 73.6104C71.0166 73.4705 71.1357 73.356 71.2785 73.2792C72.107 72.8361 72.7879 72.1606 73.2376 71.3357C73.313 71.1916 73.4273 71.0716 73.5674 70.9892C73.7075 70.9067 73.868 70.8652 74.0305 70.8692H76.969C77.034 70.8692 77.0975 70.8875 77.1524 70.9222C77.2072 70.9569 77.2511 71.0065 77.2788 71.0652C77.3065 71.1239 77.317 71.1893 77.3089 71.2537C77.3009 71.3181 77.2747 71.3789 77.2334 71.429C75.6624 73.2165 73.5488 74.4398 71.2163 74.9117C71.1678 74.9207 71.1179 74.9191 71.07 74.9069C71.0222 74.8948 70.9775 74.8725 70.9391 74.8415C70.9007 74.8104 70.8694 74.7715 70.8475 74.7272C70.8256 74.683 70.8135 74.6345 70.8121 74.5852V74.0721ZM65.0905 54.1087C65.7131 53.8589 66.3589 53.6715 67.0184 53.5489H67.2983C68.4621 53.3624 69.6483 53.3624 70.8121 53.5489C71.2856 53.6247 71.7532 53.7338 72.2114 53.8754C72.4863 53.9524 72.7563 54.0458 73.0199 54.1553C73.0675 54.173 73.1086 54.2048 73.1376 54.2465C73.1665 54.2882 73.1821 54.3377 73.1821 54.3885C73.1821 54.4393 73.1665 54.4889 73.1376 54.5306C73.1086 54.5722 73.0675 54.6041 73.0199 54.6217C72.2855 54.916 71.518 55.1196 70.7344 55.2281C70.2197 55.3067 69.7001 55.3483 69.1796 55.3525C68.5598 55.3477 67.9413 55.2957 67.3294 55.197C66.8039 55.0981 66.2848 54.9683 65.7746 54.8083L65.2304 54.6062C65.1644 54.6165 65.0971 54.6002 65.0431 54.5608C64.9892 54.5214 64.9531 54.4623 64.9428 54.3963C64.9325 54.3303 64.9488 54.2629 64.9882 54.209C65.0275 54.1551 65.0867 54.119 65.1527 54.1087H65.0905ZM58.7003 60.872C59.1605 59.4966 59.884 58.2239 60.8304 57.1249C60.9664 56.974 61.1495 56.8735 61.3499 56.8396C61.5502 56.8057 61.7562 56.8405 61.9343 56.9384L62.7117 57.3426C63.9892 57.9671 65.351 58.4019 66.7541 58.6331C66.9039 58.6614 67.0395 58.74 67.1385 58.8559C67.2375 58.9719 67.2938 59.1182 67.2983 59.2705V64.137C67.3005 64.2992 67.2583 64.4589 67.176 64.5988C67.0938 64.7386 66.9747 64.8531 66.8318 64.93C66.0034 65.373 65.3225 66.0485 64.8728 66.8734C64.7981 67.0192 64.6844 67.1414 64.5445 67.2265C64.4045 67.3116 64.2437 67.3562 64.0799 67.3554H59.3222C59.1176 67.3543 58.9193 67.2849 58.7587 67.1581C58.5981 67.0313 58.4845 66.8545 58.436 66.6558C58.436 66.4537 58.436 66.2515 58.3272 66.0494C58.2183 65.8473 58.3272 65.6607 58.2339 65.4586C58.2416 65.4018 58.2416 65.3443 58.2339 65.2876C58.2339 64.9455 58.2339 64.6035 58.2339 64.2459C58.2314 63.1004 58.4099 61.9618 58.7625 60.872H58.7003ZM49.1384 66.2982C49.4764 63.8925 50.2509 61.5689 51.4239 59.4416C52.173 58.07 53.081 56.7915 54.1292 55.6323C54.2365 55.5121 54.3731 55.4217 54.5257 55.3699C54.6782 55.3182 54.8416 55.3068 54.9999 55.3369H55.202C55.5405 55.4383 55.8538 55.6097 56.1217 55.8401C56.3895 56.0705 56.6059 56.3546 56.7568 56.674C55.3798 58.9259 54.6483 61.513 54.6423 64.1526V64.4791C54.6614 65.4622 54.7759 66.4411 54.9844 67.4021H50.0246C49.8947 67.3916 49.7685 67.3536 49.6544 67.2906C49.5403 67.2275 49.441 67.1409 49.363 67.0364C49.285 66.932 49.2302 66.8121 49.2022 66.6848C49.1742 66.5575 49.1736 66.4257 49.2006 66.2982H49.1384ZM67.2983 88.0652C67.3 88.2141 67.2693 88.3616 67.2083 88.4974C67.1473 88.6332 67.0575 88.7542 66.945 88.8518C66.8326 88.9494 66.7003 89.0214 66.5572 89.0628C66.4142 89.1042 66.2638 89.1139 66.1166 89.0913C63.5862 88.7267 61.1514 87.8711 58.9491 86.5726C58.8368 86.5085 58.7397 86.421 58.6642 86.3161C58.5887 86.2111 58.5367 86.0912 58.5116 85.9644C58.4865 85.8376 58.489 85.7068 58.5189 85.5811C58.5488 85.4553 58.6053 85.3374 58.6848 85.2355L59.5244 84.116C59.7452 83.8543 60.0463 83.6728 60.3808 83.5997C60.7154 83.5266 61.0647 83.566 61.3745 83.7118C62.9594 84.526 64.666 85.0774 66.4276 85.3443C66.6706 85.3847 66.8915 85.51 67.0509 85.6979C67.2103 85.8858 67.2979 86.1241 67.2983 86.3705V88.0652ZM67.2983 81.1619C67.2973 81.2584 67.2755 81.3535 67.2343 81.4407C67.1932 81.5279 67.1336 81.6052 67.0598 81.6672C66.9859 81.7293 66.8995 81.7746 66.8065 81.8001C66.7135 81.8256 66.616 81.8306 66.5209 81.8149C65.4481 81.6097 64.404 81.2756 63.4113 80.8199L62.9604 80.6022L62.5095 80.4001C61.5074 79.996 60.401 79.9292 59.3575 80.2097C58.314 80.4902 57.3902 81.1028 56.7257 81.9549L56.2749 82.5457L55.9483 82.9966C55.8608 83.0958 55.7531 83.1753 55.6325 83.2298C55.5119 83.2842 55.381 83.3124 55.2487 83.3124C55.1163 83.3124 54.9855 83.2842 54.8649 83.2298C54.7442 83.1753 54.6366 83.0958 54.549 82.9966C53.6883 82.1014 52.9127 81.1281 52.2324 80.0891C51.9836 79.7315 51.7504 79.3428 51.5328 78.9697C50.6384 77.3489 49.9739 75.6116 49.5582 73.8078C49.3987 73.1785 49.2793 72.5398 49.2006 71.8954C49.1802 71.7658 49.1884 71.6333 49.2245 71.5072C49.2606 71.3811 49.3238 71.2644 49.4096 71.1652C49.4955 71.066 49.6019 70.9868 49.7216 70.933C49.8412 70.8792 49.9712 70.8521 50.1024 70.8537H56.3215C56.477 71.1336 56.6324 71.429 56.8035 71.7088C57.0081 72.0624 57.2313 72.4049 57.472 72.735L58.0318 73.4502C59.1082 74.7165 60.3844 75.7984 61.8099 76.653C62.3905 76.9887 62.993 77.2848 63.6134 77.5393C64.0799 77.7414 64.5619 77.8969 65.0438 78.0523C65.7916 78.2703 66.556 78.4263 67.3294 78.5188L67.2983 81.1619ZM79.1613 86.5726C76.959 87.8711 74.5242 88.7267 71.9937 89.0913C71.8465 89.1139 71.6962 89.1042 71.5532 89.0628C71.4101 89.0214 71.2778 88.9494 71.1653 88.8518C71.0529 88.7542 70.9631 88.6332 70.9021 88.4974C70.8411 88.3616 70.8104 88.2141 70.8121 88.0652V86.2461C70.8036 86.1582 70.8036 86.0697 70.8121 85.9818C70.8643 85.7998 70.9638 85.635 71.1003 85.5039C71.2368 85.3728 71.4056 85.2802 71.5895 85.2355C73.3508 84.9584 75.0566 84.402 76.6425 83.5874C76.9524 83.4416 77.3017 83.4022 77.6363 83.4753C77.9708 83.5484 78.2719 83.7299 78.4927 83.9916L79.3323 85.1111C79.4274 85.2034 79.5009 85.3156 79.5476 85.4396C79.5944 85.5636 79.6133 85.6964 79.6029 85.8285C79.5925 85.9606 79.5531 86.0888 79.4875 86.204C79.422 86.3192 79.3318 86.4185 79.2235 86.4948L79.1613 86.5726ZM83.5613 83.1209C83.4673 83.2147 83.3544 83.2873 83.2301 83.3339C83.1058 83.3805 82.973 83.4 82.8406 83.3912C82.7081 83.3824 82.5791 83.3454 82.4621 83.2827C82.345 83.22 82.2427 83.133 82.162 83.0277L81.3846 82.0015C80.7592 81.1299 79.871 80.4815 78.8503 80.1513C78.0091 79.9334 77.1262 79.9334 76.2849 80.1513C75.9095 80.249 75.5448 80.3844 75.1966 80.5556L74.4814 80.8976L73.8284 81.1619C73.1248 81.4396 72.3958 81.6479 71.6517 81.7838C71.5565 81.7995 71.4591 81.7945 71.3661 81.769C71.2731 81.7435 71.1867 81.6982 71.1128 81.6361C71.0389 81.5741 70.9794 81.4968 70.9382 81.4096C70.8971 81.3224 70.8752 81.2273 70.8743 81.1308V78.4721C72.9092 78.2164 74.8661 77.5294 76.6143 76.4569C78.3624 75.3844 79.8615 73.9512 81.0115 72.253C81.3354 71.7515 81.6313 71.2325 81.8977 70.6982H88.1169C88.248 70.6966 88.378 70.7237 88.4976 70.7775C88.6173 70.8313 88.7237 70.9105 88.8096 71.0097C88.8955 71.1089 88.9586 71.2256 88.9947 71.3517C89.0308 71.4778 89.039 71.6103 89.0186 71.7399C88.474 75.9873 86.5833 79.9486 83.6235 83.0432L83.5613 83.1209Z" fill="#F7BF2A"/>
<path d="M89.5012 55.9123C89.0218 55.1597 88.5028 54.4331 87.9464 53.7356C87.3456 53.0083 86.7073 52.3129 86.034 51.6521C85.0711 50.7021 84.031 49.8337 82.9244 49.0557C82.1475 48.5227 81.3373 48.0397 80.499 47.6097L79.7527 47.2366H79.6594C79.0933 46.986 78.4518 46.966 77.8711 47.1808C77.2905 47.3957 76.8165 47.8284 76.5498 48.3871C76.411 48.6685 76.3316 48.9755 76.3166 49.2889C76.2971 49.6126 76.3502 49.9367 76.4721 50.2373C76.6699 50.7928 77.0696 51.2534 77.5915 51.5278L77.7159 51.6521H77.8403C78.525 51.9802 79.1896 52.3488 79.8304 52.756L79.4262 53.1136L78.9442 52.6938L78.6488 52.4606C78.2374 52.1388 77.8064 51.8428 77.3583 51.5744C77.0176 51.3572 76.6646 51.1599 76.301 50.9836L75.8502 50.7504C74.7218 50.2187 73.5307 49.8321 72.3053 49.5998L71.8699 49.5221V48.2161C71.8699 47.5769 71.616 46.9639 71.1641 46.512C70.7121 46.0601 70.0991 45.8062 69.46 45.8062C68.8208 45.8062 68.2079 46.0601 67.7559 46.512C67.304 46.9639 67.0501 47.5769 67.0501 48.2161V49.5221C64.5795 49.9167 62.2482 50.9273 60.2712 52.4606L59.9758 52.6938L59.4938 53.1136L59.0896 52.756C59.7738 52.322 60.4853 51.9325 61.2196 51.59C61.7331 51.3496 62.1446 50.9348 62.3809 50.4195C62.6172 49.9042 62.663 49.3217 62.5101 48.7758C62.4799 48.6409 62.4329 48.5103 62.3702 48.3871C62.2989 48.2406 62.2157 48.1002 62.1214 47.9673C61.7863 47.5267 61.3106 47.2139 60.7732 47.081C60.2358 46.9481 59.6692 47.003 59.1673 47.2366C58.7631 47.4231 58.3744 47.6253 58.0012 47.8274H57.8457L56.7574 48.4493C53.6717 50.3515 51.048 52.9168 49.0767 55.9589C48.657 56.6119 48.2527 57.296 47.9107 57.9646C46.468 60.4565 45.4932 63.1913 45.0343 66.0339C44.9871 66.3378 44.9559 66.644 44.941 66.9512C44.8656 67.6743 44.8293 68.4009 44.8322 69.1279C44.8359 71.5682 45.2027 73.9943 45.9205 76.3266L46.0138 76.622C46.761 78.9928 47.8731 81.2326 49.31 83.2609C49.9581 84.1564 50.6645 85.0082 51.4245 85.8108L51.8909 86.2772C56.1357 90.5016 61.7916 93.0087 67.7723 93.3169C73.753 93.6251 79.6367 91.7126 84.2932 87.9469C88.9498 84.1812 92.0507 78.8278 93.0005 72.915C93.9503 67.0021 92.6819 60.9469 89.439 55.9123H89.5012ZM85.3655 85.3599C81.052 89.6608 75.2092 92.076 69.1179 92.076C63.0266 92.076 57.1839 89.6608 52.8704 85.3599L52.4351 84.909C51.7165 84.153 51.0515 83.3477 50.445 82.4991C49.0787 80.5798 48.0288 78.4538 47.3354 76.2022L47.2421 75.9379C46.5623 73.7367 46.2113 71.4472 46.2004 69.1435C46.2004 68.449 46.2315 67.7649 46.2937 67.0912C46.2937 66.7802 46.2937 66.5003 46.387 66.2205C46.7399 63.5422 47.5498 60.9443 48.7813 58.5398C49.1079 57.9179 49.481 57.2649 49.8852 56.643C51.7343 53.7708 54.1918 51.3399 57.0839 49.5221L57.9701 48.9935H58.1256C58.5143 48.7758 58.9341 48.5737 59.3694 48.3715C59.5975 48.2595 59.8577 48.2307 60.1048 48.2904C60.3518 48.35 60.5702 48.4942 60.7221 48.698C60.7675 48.7601 60.8041 48.8281 60.8309 48.9002C60.8336 48.9571 60.8336 49.0142 60.8309 49.0712C60.8956 49.3232 60.8704 49.59 60.7598 49.8255C60.6491 50.061 60.4599 50.2506 60.2246 50.3617C59.1391 50.8742 58.0988 51.4775 57.115 52.1652L56.291 52.7405L57.1616 53.2536C57.6244 53.5331 58.0479 53.8729 58.421 54.2642L58.5298 54.4041L58.9807 54.9327L59.4783 54.4508C59.7737 54.1709 60.0691 53.891 60.38 53.6423L60.52 53.5179C62.4753 52.0085 64.8006 51.0526 67.2522 50.7504H67.8275V48.0917C67.8275 47.7989 67.9438 47.5181 68.1508 47.3111C68.3578 47.1041 68.6386 46.9878 68.9314 46.9878C69.2241 46.9878 69.5049 47.1041 69.7119 47.3111C69.919 47.5181 70.0353 47.7989 70.0353 48.0917V50.4861H70.6727H70.8437L71.5279 50.5949C72.6497 50.815 73.7408 51.17 74.7774 51.6521L75.1816 51.8543C75.4926 52.0097 75.8191 52.1963 76.1456 52.3984C76.4721 52.6006 76.9541 52.9271 77.3428 53.2225L77.4982 53.3469C77.8092 53.6112 78.1201 53.8755 78.4 54.1553L78.882 54.6218L79.4573 53.9688C79.8263 53.5731 80.2505 53.2328 80.7166 52.9582L81.5873 52.4451L81.0276 52.0408C80.0437 51.3531 79.0035 50.7498 77.918 50.2373C77.6687 50.1083 77.4752 49.8927 77.3739 49.6309C77.3501 49.4868 77.3501 49.3397 77.3739 49.1956C77.3861 49.0555 77.423 48.9186 77.4827 48.7913C77.5428 48.6597 77.6286 48.5414 77.735 48.4433C77.8414 48.3452 77.9663 48.2694 78.1024 48.2201C78.2385 48.1709 78.3831 48.1493 78.5276 48.1566C78.6721 48.1639 78.8138 48.2 78.9442 48.2627H79.0375L79.7371 48.6048C80.5479 49.028 81.3319 49.5005 82.0849 50.0196C83.1492 50.7907 84.1476 51.6488 85.07 52.585C85.7125 53.209 86.3198 53.8683 86.8891 54.5596C87.4425 55.2164 87.9614 55.9014 88.4439 56.6119C91.2933 61.0362 92.539 66.3039 91.9731 71.5358C91.4072 76.7677 89.0639 81.6473 85.3344 85.3599H85.3655Z" fill="black"/>
<path d="M81.7594 58.8665C82.4909 60.5655 82.8666 62.3963 82.8633 64.2461C82.8631 65.2449 82.7537 66.2407 82.5368 67.2157L82.3657 68.0087H88.1806C88.4052 68.0087 88.6271 67.96 88.8311 67.8661C89.0351 67.7722 89.2163 67.6351 89.3622 67.4645C89.5126 67.2945 89.6239 67.0937 89.6884 66.8761C89.7528 66.6586 89.7689 66.4295 89.7354 66.2051C89.2005 62.4909 87.6752 58.9892 85.3198 56.0679L84.5735 55.1817C84.3808 54.971 84.1337 54.8175 83.8594 54.7379C83.5852 54.6584 83.2943 54.6559 83.0187 54.7308C82.2557 54.9273 81.5883 55.3906 81.1374 56.0368C81.0363 56.1874 80.9528 56.3491 80.8887 56.5188V56.6276V56.9386L80.982 57.0941C81.2884 57.663 81.5484 58.2557 81.7594 58.8665ZM83.3141 55.9746C83.3625 55.9656 83.4124 55.9694 83.4588 55.9858C83.5052 56.0022 83.5465 56.0305 83.5785 56.0679C83.8117 56.3167 84.0449 56.581 84.2937 56.8919C86.4972 59.6316 87.9254 62.9122 88.4294 66.3917C88.4448 66.4259 88.4528 66.463 88.4528 66.5005C88.4528 66.538 88.4448 66.5751 88.4294 66.6093C88.4039 66.6379 88.3728 66.6609 88.338 66.677C88.3032 66.693 88.2655 66.7017 88.2273 66.7026H84.0604C84.1901 65.8901 84.2577 65.0689 84.2626 64.2461C84.2691 62.2192 83.8562 60.213 83.0498 58.3534C82.8125 57.8191 82.5425 57.2998 82.2413 56.7987C82.4942 56.4222 82.8584 56.1341 83.283 55.9746H83.3141Z" fill="black"/>
<path d="M70.223 59.2707V64.1372C70.2238 64.4184 70.3008 64.6942 70.4459 64.9352C70.5911 65.1761 70.7988 65.3732 71.0471 65.5054C71.6938 65.8769 72.2304 66.4134 72.6019 67.0602V67.2312C72.7353 67.4818 72.9348 67.6911 73.1787 67.8363C73.4227 67.9816 73.7017 68.0573 73.9856 68.0552H78.8521C79.2094 68.0648 79.559 67.9509 79.8422 67.7329C80.1254 67.5148 80.3248 67.2059 80.4069 66.858C80.593 66.0156 80.6868 65.1554 80.6868 64.2926C80.6868 64.075 80.6868 63.8573 80.6868 63.6241C80.5327 61.0885 79.5493 58.6738 77.8881 56.7519C77.6527 56.4851 77.3328 56.3071 76.9819 56.2477C76.631 56.1882 76.2704 56.251 75.9602 56.4254C74.5102 57.2167 72.9307 57.7432 71.2959 57.9802C70.9911 58.029 70.7145 58.1867 70.5172 58.424C70.3199 58.6614 70.2154 58.9622 70.223 59.2707ZM71.5291 59.2707C73.2947 58.9815 74.995 58.3814 76.551 57.4982C76.5938 57.46 76.6491 57.4388 76.7065 57.4388C76.7639 57.4388 76.8192 57.46 76.862 57.4982C78.3395 59.1992 79.2092 61.3434 79.3341 63.593C79.3341 63.7951 79.3341 63.9972 79.3341 64.1838C79.3368 64.9474 79.2534 65.7089 79.0853 66.4538C79.0712 66.5085 79.0389 66.5568 78.9937 66.5907C78.9485 66.6247 78.8931 66.6422 78.8366 66.6404H74.0789C74.0328 66.6405 73.9874 66.6291 73.9467 66.6074C73.906 66.5857 73.8713 66.5543 73.8457 66.516C73.8104 66.4351 73.7688 66.3571 73.7213 66.2828C73.222 65.4413 72.5013 64.753 71.6379 64.2926C71.5998 64.2706 71.5681 64.2389 71.5463 64.2006C71.5244 64.1624 71.5131 64.119 71.5135 64.075L71.5291 59.2707Z" fill="black"/>
<path d="M77.0329 70.2164H74.0943C73.8146 70.2156 73.5399 70.2903 73.2991 70.4326C73.0583 70.5749 72.8603 70.7795 72.7261 71.0249C72.3546 71.7351 71.7811 72.3194 71.078 72.7041C70.8298 72.8363 70.622 73.0333 70.4769 73.2743C70.3318 73.5152 70.2547 73.791 70.254 74.0723V74.5853C70.2521 74.7311 70.2833 74.8754 70.3453 75.0074C70.4072 75.1393 70.4982 75.2555 70.6116 75.3472C70.7947 75.4873 71.0185 75.5637 71.249 75.5649H71.4356C72.259 75.3982 73.0618 75.1428 73.83 74.803C75.3559 74.1268 76.7147 73.1236 77.8102 71.8645C77.9394 71.7243 78.0233 71.5484 78.0511 71.3598C78.0788 71.1712 78.0491 70.9787 77.9657 70.8072C77.8877 70.6264 77.7569 70.4732 77.5905 70.3678C77.4241 70.2624 77.2297 70.2097 77.0329 70.2164ZM73.2703 73.6058C72.7066 73.849 72.1242 74.0466 71.5289 74.1966V74.0723C71.5285 74.0282 71.5398 73.9849 71.5617 73.9466C71.5835 73.9084 71.6151 73.8766 71.6533 73.8546C72.5954 73.3533 73.3688 72.5854 73.8766 71.6468C73.8966 71.6058 73.9275 71.571 73.9658 71.5463C74.0042 71.5216 74.0487 71.508 74.0943 71.5069H76.3177C75.4305 72.377 74.3995 73.0871 73.2703 73.6058Z" fill="black"/>
<path d="M50.1028 68.0086H55.8711L55.7 67.2157C55.5014 66.3165 55.3921 65.3999 55.3735 64.4792V64.2927C55.3729 63.2835 55.4824 62.2773 55.7 61.2919C56.0396 59.829 56.6062 58.4282 57.3792 57.1406L57.5502 56.8608L57.4258 56.5498C57.2506 56.1438 56.9907 55.7799 56.6636 55.4823C56.3365 55.1847 55.9497 54.9603 55.529 54.824L55.2958 54.7307H55.1403C54.8605 54.6614 54.5669 54.6712 54.2924 54.759C54.0178 54.8469 53.7731 55.0093 53.5855 55.2283C52.5352 56.4118 51.6224 57.7106 50.8647 59.0997C49.6589 61.2914 48.8583 63.6826 48.5014 66.1584C48.4679 66.3828 48.484 66.6119 48.5484 66.8294C48.6129 67.047 48.7242 67.2478 48.8745 67.4178C49.0209 67.6031 49.2077 67.7526 49.4205 67.855C49.6333 67.9573 49.8666 68.0099 50.1028 68.0086ZM49.8385 66.4538C50.1637 64.1248 50.9119 61.8748 52.0463 59.8149C52.7733 58.4908 53.6497 57.2545 54.6583 56.13C54.6903 56.0926 54.7316 56.0643 54.778 56.0479C54.8244 56.0315 54.8743 56.0277 54.9226 56.0368H55.0626C55.4523 56.1655 55.7903 56.4163 56.0265 56.752C55.2949 58.0627 54.7704 59.4788 54.4718 60.9499C54.2241 62.0311 54.099 63.1368 54.0986 64.246V64.4792C54.1112 65.2398 54.1788 65.9984 54.3007 66.7492H50.1339C50.0956 66.7483 50.0579 66.7396 50.0232 66.7235C49.9884 66.7075 49.9573 66.6845 49.9318 66.6559C49.893 66.6251 49.8637 66.5839 49.8472 66.5372C49.8307 66.4904 49.8277 66.44 49.8385 66.3916V66.4538Z" fill="black"/>
<path d="M66.5847 84.6914C64.8998 84.4366 63.267 83.9116 61.7493 83.1366C61.3069 82.9091 60.7988 82.8437 60.3132 82.9516C59.8276 83.0595 59.3951 83.334 59.0906 83.7274L58.2511 84.8313C58.1147 85.0068 58.0175 85.2094 57.9661 85.4256C57.9146 85.6418 57.9101 85.8664 57.9528 86.0845C57.9956 86.3026 58.0845 86.5089 58.2138 86.6897C58.343 86.8705 58.5094 87.0214 58.7019 87.1324C60.9757 88.4728 63.4899 89.3549 66.1027 89.7289H66.3515C66.7576 89.7245 67.1489 89.5757 67.4554 89.3091C67.6365 89.1498 67.7815 88.9536 67.8807 88.7338C67.9799 88.5139 68.031 88.2754 68.0307 88.0342V86.2462C68.0056 85.8601 67.8481 85.4946 67.5846 85.2113C67.3211 84.928 66.9679 84.7443 66.5847 84.6914ZM66.7091 88.0498C66.7096 88.1049 66.6988 88.1595 66.6774 88.2103C66.656 88.2611 66.6245 88.307 66.5847 88.3452C66.5357 88.3666 66.4827 88.3776 66.4292 88.3776C66.3757 88.3776 66.3228 88.3666 66.2738 88.3452C63.8267 87.9947 61.4714 87.1709 59.3394 85.9197C59.3074 85.9021 59.2796 85.8776 59.2581 85.8481C59.2366 85.8185 59.2219 85.7846 59.215 85.7487C59.1888 85.6785 59.1888 85.6012 59.215 85.531L60.0546 84.4271C60.1278 84.3265 60.2236 84.2445 60.3344 84.1878C60.4451 84.1311 60.5676 84.1012 60.6921 84.1006C60.8344 84.0976 60.9747 84.1353 61.0963 84.2094C62.7689 85.0529 64.563 85.6299 66.4137 85.9197C66.5044 85.9311 66.5877 85.9754 66.6479 86.0442C66.7081 86.113 66.7409 86.2015 66.7402 86.2928L66.7091 88.0498Z" fill="black"/>
<path d="M63.894 76.9174C63.2979 76.6764 62.721 76.3905 62.1682 76.0623C60.7961 75.2468 59.58 74.1939 58.5766 72.9527C58.39 72.735 58.2035 72.5018 58.0324 72.2686L57.4727 71.4446L57.3483 71.3046C57.1929 71.0559 57.0529 70.8071 56.913 70.5428L56.7264 70.2007H50.103C49.8797 70.1988 49.6585 70.245 49.4546 70.3362C49.2507 70.4275 49.0688 70.5615 48.9214 70.7294C48.7711 70.8993 48.6598 71.1002 48.5953 71.3177C48.5308 71.5353 48.5148 71.7643 48.5483 71.9887C48.6415 72.6573 48.7659 73.3103 48.9214 73.9633C49.3731 75.8312 50.0849 77.6264 51.0359 79.2962C51.2536 79.6849 51.4868 80.0736 51.7511 80.4623C52.4563 81.5381 53.2577 82.5477 54.1455 83.4786C54.2918 83.6321 54.468 83.754 54.6632 83.8369C54.8583 83.9198 55.0684 83.9619 55.2805 83.9606H55.3738C55.5992 83.9467 55.8189 83.8839 56.0176 83.7765C56.2163 83.6691 56.3892 83.5197 56.5243 83.3387L57.3172 82.297C57.9319 81.49 58.8116 80.9259 59.8014 80.704C60.7913 80.4822 61.8276 80.6168 62.7279 81.0842L63.1011 81.2553H63.2099C64.2426 81.73 65.3282 82.0797 66.4438 82.297C66.6322 82.3341 66.8265 82.3282 67.0123 82.2798C67.198 82.2313 67.3704 82.1415 67.5166 82.0171C67.6677 81.8957 67.7895 81.7418 67.8729 81.5668C67.9564 81.3918 67.9993 81.2003 67.9986 81.0065V77.8969L67.4234 77.8192C66.21 77.6878 65.0216 77.3842 63.894 76.9174ZM66.7082 81.0531C65.7174 80.8584 64.7523 80.5506 63.8318 80.1358L63.3965 79.9337C62.2269 79.324 60.88 79.1457 59.5921 79.43C58.3042 79.7143 57.1575 80.4431 56.3533 81.4885L55.9957 81.9549L55.7625 82.0638V82.2503L55.5603 82.5146C55.5414 82.5474 55.5142 82.5747 55.4815 82.5938C55.4488 82.6129 55.4116 82.6231 55.3738 82.6235C55.3327 82.6259 55.2917 82.6188 55.2539 82.6026C55.2161 82.5864 55.1826 82.5616 55.1561 82.5302C54.3251 81.6683 53.5756 80.7315 52.9172 79.7316C52.6684 79.3584 52.4508 78.9853 52.2486 78.6277C51.36 77.0592 50.6954 75.3741 50.2741 73.6213C50.1235 73.011 50.0042 72.3935 49.9165 71.7711C49.9019 71.7366 49.8944 71.6996 49.8944 71.6622C49.8944 71.6249 49.9019 71.5878 49.9165 71.5534C49.942 71.5249 49.9731 71.5018 50.0079 71.4858C50.0426 71.4698 50.0803 71.461 50.1186 71.4601H55.9646L56.1978 71.8644L56.2911 72.0198C56.5088 72.3774 56.742 72.735 57.0063 73.0926L57.5816 73.8389C58.6995 75.1685 60.0348 76.2988 61.5307 77.1817C62.1387 77.5298 62.7669 77.8413 63.412 78.1146C64.477 78.55 65.588 78.8629 66.7237 79.0475L66.7082 81.0531Z" fill="black"/>
<path d="M67.2057 72.7196C66.992 72.603 66.7891 72.4677 66.5993 72.3153C66.152 71.9642 65.7816 71.525 65.511 71.0248C65.3767 70.7795 65.1788 70.5749 64.938 70.4326C64.6972 70.2903 64.4225 70.2156 64.1428 70.2164H61.2042C61.0143 70.2145 60.828 70.2679 60.6679 70.37C60.5078 70.4722 60.3808 70.6186 60.3025 70.7916C60.2191 70.9631 60.1894 71.1556 60.2171 71.3442C60.2449 71.5328 60.3288 71.7087 60.4579 71.8489C61.5468 73.098 62.8943 74.0954 64.4071 74.7719C65.1829 75.1237 65.9968 75.3846 66.8326 75.5493H67.0191C67.2497 75.5482 67.4735 75.4717 67.6566 75.3316C67.7699 75.2399 67.861 75.1237 67.9229 74.9918C67.9849 74.8598 68.0161 74.7155 68.0142 74.5698V74.0567C68.0094 73.7823 67.9321 73.514 67.7901 73.2792C67.6481 73.0443 67.4465 72.8513 67.2057 72.7196ZM66.7082 74.2743C66.1024 74.1191 65.5097 73.9163 64.9357 73.668C63.8167 73.1544 62.7959 72.4494 61.9194 71.5846H64.1428C64.1884 71.5857 64.2328 71.5993 64.2712 71.624C64.3096 71.6487 64.3405 71.6835 64.3605 71.7245C64.7191 72.3794 65.2055 72.9557 65.7909 73.4192C66.0394 73.6134 66.3048 73.7851 66.5838 73.9323C66.6219 73.9543 66.6536 73.9861 66.6754 74.0243C66.6973 74.0626 66.7086 74.1059 66.7082 74.15V74.2743Z" fill="black"/>
<path d="M57.6596 65.5209C57.6596 65.7386 57.6596 65.9407 57.6596 66.1584C57.6596 66.3761 57.6596 66.5626 57.784 66.7959C57.863 67.1466 58.0611 67.4591 58.3446 67.6802C58.628 67.9013 58.9794 68.0174 59.3388 68.0086H64.0964C64.3777 68.0078 64.6535 67.9308 64.8945 67.7857C65.1354 67.6406 65.3325 67.4328 65.4647 67.1846C65.8553 66.4727 66.444 65.8894 67.1594 65.5054C67.4047 65.3711 67.6094 65.1732 67.7516 64.9324C67.8939 64.6916 67.9686 64.4169 67.9679 64.1372V59.2707C67.9674 58.9611 67.8556 58.662 67.653 58.428C67.4503 58.1939 67.1703 58.0405 66.864 57.9958C65.5259 57.7753 64.2271 57.3616 63.0081 56.7675L62.2773 56.3788C61.9671 56.2044 61.6065 56.1416 61.2556 56.201C60.9047 56.2605 60.5849 56.4385 60.3494 56.7053C59.3412 57.8608 58.5794 59.2099 58.1105 60.67C57.7246 61.8225 57.5302 63.0306 57.5353 64.246C57.5353 64.6192 57.5353 64.9923 57.5353 65.3655L57.6596 65.5209ZM59.3854 61.0742C59.8115 59.7756 60.4935 58.5756 61.3911 57.5449C61.4328 57.5108 61.485 57.4921 61.5388 57.4921C61.5927 57.4921 61.6449 57.5108 61.6865 57.5449C61.9249 57.6796 62.1892 57.8196 62.4795 57.9647C63.8166 58.617 65.241 59.0726 66.7085 59.3173V64.1683C66.7089 64.2123 66.6976 64.2557 66.6757 64.2939C66.6539 64.3322 66.6222 64.3639 66.5841 64.3859C65.6415 64.8936 64.8684 65.6666 64.3608 66.6093C64.3401 66.6486 64.3086 66.6812 64.2701 66.7032C64.2315 66.7252 64.1874 66.7358 64.1431 66.7337H59.3854C59.329 66.7355 59.2735 66.7179 59.2283 66.684C59.1831 66.6501 59.1508 66.6018 59.1367 66.5471C59.1367 66.3294 59.1367 66.1428 59.0278 65.9718C58.919 65.8008 59.0278 65.5987 59.0278 65.3966V65.2566C59.0278 64.9457 59.0278 64.6192 59.0278 64.2771C58.9799 63.1974 59.1006 62.1168 59.3854 61.0742Z" fill="black"/>
<path d="M71.0779 69.2211V69.1434C71.0751 68.879 71.017 68.6181 70.9074 68.3774C70.7978 68.1367 70.639 67.9217 70.4414 67.746C70.2437 67.5703 70.0115 67.4379 69.7597 67.3572C69.5078 67.2766 69.2419 67.2495 68.979 67.2777C68.5735 67.325 68.1942 67.5018 67.8973 67.7819C67.6004 68.0621 67.4017 68.4305 67.3309 68.8324C67.2966 69.0894 67.3162 69.3507 67.3884 69.5996C67.4607 69.8486 67.5841 70.0798 67.7507 70.2784C67.9143 70.4735 68.1157 70.6333 68.3429 70.7482C68.5701 70.8631 68.8182 70.9307 69.0722 70.947H69.1966C69.6698 70.9486 70.1261 70.7718 70.4748 70.452C70.8235 70.1322 71.0388 69.6927 71.0779 69.2211ZM69.7719 69.2211C69.7604 69.367 69.6952 69.5033 69.5889 69.6039C69.4826 69.7044 69.3429 69.7619 69.1966 69.7653C69.0335 69.7509 68.8826 69.6726 68.7768 69.5476C68.6821 69.4233 68.6377 69.2679 68.6525 69.1123C68.6686 68.986 68.7262 68.8686 68.8163 68.7786C68.9063 68.6886 69.0237 68.6309 69.15 68.6148C69.2922 68.6131 69.4302 68.6628 69.5387 68.7547C69.5997 68.8092 69.648 68.8765 69.6803 68.9517C69.7125 69.0269 69.7279 69.1083 69.7252 69.19L69.7719 69.2211Z" fill="black"/>
<path d="M64.8582 55.1504L65.4335 55.3525C65.9756 55.5379 66.532 55.6783 67.0971 55.7723C67.7442 55.8838 68.3995 55.9411 69.0561 55.9433C69.6181 55.9412 70.1792 55.8996 70.7353 55.8189H70.8286C71.6598 55.6968 72.4739 55.4777 73.2541 55.1659C73.4221 55.0984 73.5664 54.9826 73.6688 54.8332C73.7712 54.6838 73.827 54.5074 73.8293 54.3263C73.8313 54.1442 73.7772 53.966 73.6742 53.8157C73.5713 53.6655 73.4246 53.5506 73.2541 53.4868C72.9749 53.3721 72.6894 53.2735 72.3989 53.1913C71.8909 53.0349 71.3709 52.9205 70.8441 52.8493C69.6085 52.6471 68.3483 52.6471 67.1127 52.8493H66.8173C66.1196 52.9749 65.437 53.1729 64.7805 53.4401C64.6124 53.5076 64.4681 53.6234 64.3657 53.7728C64.2634 53.9222 64.2075 54.0986 64.2052 54.2797C64.2017 54.4768 64.264 54.6694 64.3823 54.8271C64.5006 54.9848 64.6681 55.0985 64.8582 55.1504ZM67.1438 54.1553H67.4081C68.5001 53.9843 69.6122 53.9843 70.7042 54.1553L71.6371 54.3574C71.3106 54.4352 70.9841 54.5129 70.6576 54.5596H70.5643C69.4879 54.7306 68.3912 54.7306 67.3148 54.5596L66.4752 54.3885L67.1438 54.1553Z" fill="black"/>
<path d="M79.1628 83.6497C78.8584 83.2563 78.4259 82.9818 77.9403 82.8738C77.4546 82.7659 76.9466 82.8314 76.5042 83.0589C74.9798 83.8309 73.3424 84.3557 71.6532 84.6137C71.2563 84.6763 70.8945 84.878 70.6325 85.1828C70.3705 85.4875 70.2253 85.8754 70.2228 86.2773V87.972C70.2194 88.2137 70.2691 88.4532 70.3685 88.6735C70.4679 88.8938 70.6146 89.0896 70.7981 89.2469C71.1045 89.5135 71.4959 89.6623 71.902 89.6667H72.1508C74.7636 89.2927 77.2778 88.4106 79.5515 87.0702C79.7411 86.9613 79.9055 86.8136 80.0341 86.6367C80.1627 86.4599 80.2526 86.258 80.2978 86.0441C80.3442 85.8229 80.3418 85.5942 80.2908 85.374C80.2398 85.1538 80.1414 84.9474 80.0024 84.7691L79.1628 83.6497ZM79.0229 85.7642C79.016 85.8001 79.0013 85.834 78.9798 85.8636C78.9583 85.8931 78.9306 85.9176 78.8985 85.9352C76.7666 87.1864 74.4112 88.0103 71.9642 88.3607C71.9152 88.3821 71.8622 88.3931 71.8087 88.3931C71.7552 88.3931 71.7023 88.3821 71.6532 88.3607C71.6135 88.3225 71.5819 88.2766 71.5605 88.2258C71.5391 88.175 71.5283 88.1204 71.5289 88.0653V86.2462C71.5313 86.1557 71.5653 86.0689 71.6249 86.0008C71.6845 85.9327 71.766 85.8875 71.8554 85.873C73.6809 85.5901 75.4496 85.0181 77.095 84.1783C77.2131 84.1109 77.3479 84.0786 77.4837 84.085C77.609 84.0838 77.733 84.1112 77.8461 84.165C77.9593 84.2189 78.0587 84.2979 78.1367 84.396L78.9763 85.4999C79.0033 85.5377 79.0215 85.581 79.0296 85.6267C79.0377 85.6725 79.0354 85.7195 79.0229 85.7642Z" fill="black"/>
<path d="M89.3154 70.6982C89.168 70.5304 88.9862 70.3963 88.7823 70.3051C88.5783 70.2139 88.3572 70.1677 88.1338 70.1696H81.5104L81.3238 70.5117C80.2978 72.4968 78.8027 74.2014 76.9684 75.4776C75.134 76.7538 73.0159 77.5629 70.7979 77.8347L70.2227 77.9124V81.022C70.2219 81.2159 70.2649 81.4074 70.3483 81.5823C70.4318 81.7573 70.5536 81.9112 70.7047 82.0326C70.8509 82.157 71.0233 82.2468 71.209 82.2953C71.3948 82.3437 71.5891 82.3496 71.7775 82.3125C72.554 82.1568 73.318 81.9437 74.063 81.675H74.2029L74.7471 81.4574L75.5089 81.0998C76.4914 80.5887 77.6335 80.4773 78.6963 80.7888C79.5704 81.0589 80.3339 81.6043 80.873 82.3436L81.6659 83.3853C81.801 83.5663 81.9739 83.7157 82.1726 83.8231C82.3713 83.9305 82.591 83.9933 82.8164 84.0072H82.9097C83.1218 84.0085 83.3319 83.9664 83.527 83.8835C83.7222 83.8007 83.8984 83.6787 84.0447 83.5252C87.0769 80.3824 89.0363 76.3603 89.6419 72.0354C89.6938 71.8024 89.6913 71.5606 89.6347 71.3287C89.5781 71.0968 89.4688 70.8811 89.3154 70.6982ZM88.3981 71.771C87.8348 75.8295 85.9943 79.6032 83.1429 82.5457C83.1111 82.5599 83.0767 82.5672 83.0419 82.5672C83.0071 82.5672 82.9726 82.5599 82.9408 82.5457C82.9011 82.5439 82.8623 82.5332 82.8273 82.5144C82.7923 82.4955 82.762 82.469 82.7387 82.4369L81.9613 81.5817C81.2372 80.6136 80.216 79.9092 79.0538 79.5761H78.9606C77.608 79.2061 76.1659 79.3559 74.9181 79.9959L74.234 80.3224L73.6276 80.5711H73.4877C72.8546 80.8016 72.2049 80.9835 71.5442 81.1153V79.0941C73.7957 78.7284 75.9344 77.8552 77.7984 76.5407C79.6625 75.2261 81.203 73.5047 82.3034 71.5067H88.1804C88.2187 71.5076 88.2564 71.5164 88.2912 71.5324C88.326 71.5485 88.3571 71.5715 88.3826 71.6C88.3996 71.6334 88.4097 71.6699 88.4124 71.7073C88.4151 71.7447 88.4102 71.7822 88.3981 71.8177V71.771Z" fill="black"/>
</svg>
